<svg width="25" height="25" viewBox="0 0 25 25" fill="none" xmlns="http://www.w3.org/2000/svg">
<path d="M19.7917 11.4583H7.4375L11.2187 6.91667C11.3956 6.70394 11.4806 6.42969 11.4552 6.15425C11.4298 5.8788 11.2961 5.62473 11.0833 5.44792C10.8706 5.27111 10.5964 5.18604 10.3209 5.21144C10.0455 5.23683 9.79139 5.37061 9.61458 5.58334L4.40625 11.8333C4.37121 11.883 4.33987 11.9353 4.3125 11.9896C4.3125 12.0417 4.3125 12.0729 4.23958 12.125C4.19237 12.2444 4.16764 12.3716 4.16666 12.5C4.16764 12.6284 4.19237 12.7556 4.23958 12.875C4.23958 12.9271 4.23958 12.9583 4.3125 13.0104C4.33987 13.0647 4.37121 13.117 4.40625 13.1667L9.61458 19.4167C9.71252 19.5342 9.83517 19.6288 9.97379 19.6936C10.1124 19.7584 10.2636 19.7919 10.4167 19.7917C10.6601 19.7921 10.8959 19.7074 11.0833 19.5521C11.1888 19.4646 11.276 19.3572 11.3399 19.236C11.4038 19.1148 11.4432 18.9822 11.4558 18.8458C11.4683 18.7094 11.4539 18.5718 11.4132 18.441C11.3725 18.3101 11.3065 18.1886 11.2187 18.0833L7.4375 13.5417H19.7917C20.0679 13.5417 20.3329 13.4319 20.5282 13.2366C20.7236 13.0412 20.8333 12.7763 20.8333 12.5C20.8333 12.2237 20.7236 11.9588 20.5282 11.7634C20.3329 11.5681 20.0679 11.4583 19.7917 11.4583Z" fill="#29243C"/>
</svg>
