<svg width="14" height="14" viewBox="0 0 14 14" fill="none" xmlns="http://www.w3.org/2000/svg">
<path d="M1.43148 4.63138C1.59557 4.46734 1.81809 4.37519 2.05011 4.37519C2.28212 4.37519 2.50464 4.46734 2.66873 4.63138L6.99998 8.96263L11.3312 4.63138C11.4963 4.47199 11.7173 4.38379 11.9467 4.38579C12.1761 4.38778 12.3956 4.4798 12.5578 4.64203C12.7201 4.80427 12.8121 5.02373 12.8141 5.25315C12.8161 5.48257 12.7279 5.7036 12.5685 5.86862L7.61861 10.8185C7.45452 10.9825 7.232 11.0747 6.99998 11.0747C6.76796 11.0747 6.54544 10.9825 6.38136 10.8185L1.43148 5.86862C1.26744 5.70454 1.17529 5.48202 1.17529 5.25C1.17529 5.01798 1.26744 4.79546 1.43148 4.63138V4.63138Z" fill="#EA5A42"/>
</svg>
