<svg width="22" height="22" viewBox="0 0 22 22" fill="none" xmlns="http://www.w3.org/2000/svg">
<path d="M12.2924 11L16.2341 7.0675C16.4067 6.89489 16.5037 6.66077 16.5037 6.41666C16.5037 6.17255 16.4067 5.93844 16.2341 5.76583C16.0615 5.59322 15.8274 5.49625 15.5833 5.49625C15.3392 5.49625 15.1051 5.59322 14.9324 5.76583L10.9999 9.7075L7.06744 5.76583C6.89483 5.59322 6.66072 5.49625 6.41661 5.49625C6.1725 5.49625 5.93839 5.59322 5.76578 5.76583C5.59317 5.93844 5.49619 6.17255 5.49619 6.41666C5.49619 6.66077 5.59317 6.89489 5.76578 7.0675L9.70744 11L5.76578 14.9325C5.67986 15.0177 5.61167 15.1191 5.56513 15.2308C5.51859 15.3425 5.49463 15.4623 5.49463 15.5833C5.49463 15.7043 5.51859 15.8242 5.56513 15.9359C5.61167 16.0476 5.67986 16.1489 5.76578 16.2342C5.85099 16.3201 5.95238 16.3883 6.06408 16.4348C6.17579 16.4814 6.2956 16.5053 6.41661 16.5053C6.53762 16.5053 6.65744 16.4814 6.76914 16.4348C6.88084 16.3883 6.98223 16.3201 7.06744 16.2342L10.9999 12.2925L14.9324 16.2342C15.0177 16.3201 15.119 16.3883 15.2307 16.4348C15.3425 16.4814 15.4623 16.5053 15.5833 16.5053C15.7043 16.5053 15.8241 16.4814 15.9358 16.4348C16.0475 16.3883 16.1489 16.3201 16.2341 16.2342C16.32 16.1489 16.3882 16.0476 16.4348 15.9359C16.4813 15.8242 16.5053 15.7043 16.5053 15.5833C16.5053 15.4623 16.4813 15.3425 16.4348 15.2308C16.3882 15.1191 16.32 15.0177 16.2341 14.9325L12.2924 11Z" fill="white"/>
</svg>
