<svg width="13" height="15" viewBox="0 0 13 15" fill="none" xmlns="http://www.w3.org/2000/svg">
<path d="M5.525 0.809179L0.65 4.2811C0.24375 4.57429 0 5.02949 0 5.51556V12.4594C0 13.3081 0.73125 14.0025 1.625 14.0025H11.375C12.2688 14.0025 13 13.3081 13 12.4594V5.51556C13 5.02949 12.7563 4.57429 12.35 4.2811L7.475 0.809179C7.19319 0.610034 6.85128 0.50248 6.5 0.50248C6.14872 0.50248 5.80681 0.610034 5.525 0.809179V0.809179ZM6.90625 7.44441C6.90625 8.08478 6.36187 8.60171 5.6875 8.60171V11.3021C5.6875 11.5181 5.50875 11.6879 5.28125 11.6879C5.05375 11.6879 4.875 11.5181 4.875 11.3021V8.60171C4.20063 8.60171 3.65625 8.08478 3.65625 7.44441V5.51556C3.65625 5.29953 3.835 5.12979 4.0625 5.12979C4.29 5.12979 4.46875 5.29953 4.46875 5.51556V7.44441H4.875V5.51556C4.875 5.29953 5.05375 5.12979 5.28125 5.12979C5.50875 5.12979 5.6875 5.29953 5.6875 5.51556V7.44441H6.09375V5.51556C6.09375 5.29953 6.2725 5.12979 6.5 5.12979C6.7275 5.12979 6.90625 5.29953 6.90625 5.51556V7.44441ZM8.53125 11.6879C8.30375 11.6879 8.125 11.5181 8.125 11.3021V8.98748H7.71875C7.49125 8.98748 7.3125 8.81774 7.3125 8.60171V6.67287C7.3125 5.99392 7.77562 5.41526 8.4175 5.21466C8.66937 5.12979 8.9375 5.32268 8.9375 5.585V11.3021C8.9375 11.5181 8.75875 11.6879 8.53125 11.6879Z" fill="#F15743"/>
</svg>
