<svg width="15" height="16" viewBox="0 0 15 16" fill="none" xmlns="http://www.w3.org/2000/svg">
<rect x="3.33337" y="4.59831" width="9.23074" height="8.0769" fill="#F15743"/>
<path d="M6.85419 0.201338L1.54171 4.12496C1.099 4.45629 0.833374 4.97072 0.833374 5.52003V13.3673C0.833374 14.3264 1.63025 15.1111 2.6042 15.1111H13.2292C14.2031 15.1111 15 14.3264 15 13.3673V5.52003C15 4.97072 14.7344 4.45629 14.2917 4.12496L8.97918 0.201338C8.67209 -0.0237163 8.29949 -0.145264 7.91669 -0.145264C7.53389 -0.145264 7.16129 -0.0237163 6.85419 0.201338V0.201338ZM8.35939 7.69982C8.35939 8.42351 7.76617 9.00769 7.03127 9.00769V12.0594C7.03127 12.3035 6.83648 12.4954 6.58857 12.4954C6.34065 12.4954 6.14586 12.3035 6.14586 12.0594V9.00769C5.41097 9.00769 4.81774 8.42351 4.81774 7.69982V5.52003C4.81774 5.27589 5.01253 5.08407 5.26044 5.08407C5.50836 5.08407 5.70315 5.27589 5.70315 5.52003V7.69982H6.14586V5.52003C6.14586 5.27589 6.34065 5.08407 6.58857 5.08407C6.83648 5.08407 7.03127 5.27589 7.03127 5.52003V7.69982H7.47398V5.52003C7.47398 5.27589 7.66877 5.08407 7.91669 5.08407C8.1646 5.08407 8.35939 5.27589 8.35939 5.52003V7.69982ZM10.1302 12.4954C9.88231 12.4954 9.68752 12.3035 9.68752 12.0594V9.44365H9.24481C8.99689 9.44365 8.8021 9.25183 8.8021 9.00769V6.8279C8.8021 6.06061 9.30679 5.40668 10.0063 5.17998C10.2807 5.08407 10.5729 5.30205 10.5729 5.5985V12.0594C10.5729 12.3035 10.3781 12.4954 10.1302 12.4954Z" fill="white"/>
</svg>
