<svg width="10" height="10" viewBox="0 0 10 10" fill="none" xmlns="http://www.w3.org/2000/svg">
<rect width="10" height="10" fill="white"/>
<path d="M6.00586 1.25862C6.62891 1.25862 7.35742 1.53206 7.87695 1.88167V0.42659C7.34961 0.174637 6.63086 0.0105743 6.00586 0.0105743C4.9668 0.0105743 4.23047 0.287918 3.53516 0.885574C2.83984 1.48323 2.30273 2.28011 2.05469 3.33675H1.22461V4.58479H2.05664V5.41682H1.22461V6.66487H2.05664C2.47266 8.95198 3.92773 9.99104 6.00781 9.99104C6.83984 9.99104 7.23437 9.90901 7.87891 9.57503V8.11995C7.24219 8.51057 6.5918 8.743 6.00781 8.743C4.75391 8.743 3.99609 8.07893 3.67383 6.66682L7.04687 6.66487V5.41682H3.71875V4.58479H7.04492V3.33675H3.71875C3.89258 2.67659 4.18359 2.17854 4.61914 1.78596C5.05664 1.39339 5.38281 1.25862 6.00586 1.25862Z" fill="#FFA89D"/>
</svg>
