<svg width="72" height="24" viewBox="0 0 72 24" fill="none" xmlns="http://www.w3.org/2000/svg">
<path d="M42.636 5.63598C43.5315 4.74039 44.6058 4.04386 45.7889 3.59193C46.972 3.14 48.2371 2.94284 49.5016 3.01335C50.7661 3.08385 52.0015 3.42044 53.1269 4.00109C54.2524 4.58174 55.2427 5.39339 56.033 6.38298L50.414 12L56.033 17.617C55.2687 18.5724 54.3176 19.3619 53.2379 19.9373C52.1581 20.5127 50.9724 20.8619 49.7531 20.9636C48.5339 21.0652 47.3067 20.9172 46.1466 20.5286C44.9864 20.14 43.9177 19.5189 43.0057 18.7033C42.0937 17.8877 41.3576 16.8947 40.8423 15.785C40.327 14.6753 40.0434 13.4722 40.0088 12.2492C39.9743 11.0262 40.1894 9.80896 40.6411 8.67191C41.0928 7.53485 41.7716 6.50183 42.636 5.63598Z" fill="#272844" stroke="#272844" stroke-width="2" stroke-linecap="round" stroke-linejoin="round"/>
<path d="M48.5 8.5C49.0523 8.5 49.5 8.05228 49.5 7.5C49.5 6.94772 49.0523 6.5 48.5 6.5C47.9477 6.5 47.5 6.94772 47.5 7.5C47.5 8.05228 47.9477 8.5 48.5 8.5Z" fill="white" stroke="white" stroke-width="2" stroke-linecap="round" stroke-linejoin="round"/>
<path d="M6.44531 13.6621C6.44531 13.7637 6.42383 13.8789 6.38086 14.0078C6.3418 14.1328 6.2832 14.2285 6.20508 14.2949C6.21289 14.3105 6.2168 14.334 6.2168 14.3652C6.2168 14.4277 6.20508 14.4844 6.18164 14.5352C6.16211 14.582 6.14648 14.6309 6.13477 14.6816C6.0918 14.8301 6.03125 14.9746 5.95312 15.1152C5.875 15.2559 5.7832 15.3867 5.67773 15.5078C5.57227 15.6289 5.45508 15.7383 5.32617 15.8359C5.20117 15.9336 5.07031 16.0156 4.93359 16.082C4.90625 16.0938 4.88477 16.1094 4.86914 16.1289C4.85352 16.1523 4.83789 16.1758 4.82227 16.1992C4.80664 16.2227 4.78906 16.2441 4.76953 16.2637C4.75391 16.2832 4.73242 16.2988 4.70508 16.3105C4.54883 16.3652 4.39258 16.416 4.23633 16.4629C4.08008 16.5137 3.92383 16.5664 3.76758 16.6211C3.74414 16.6289 3.71875 16.6348 3.69141 16.6387C3.66406 16.6426 3.63672 16.6504 3.60938 16.6621C3.59766 16.6738 3.58594 16.6895 3.57422 16.709C3.56641 16.7324 3.55078 16.7441 3.52734 16.7441C3.41797 16.7441 3.28516 16.7402 3.12891 16.7324C2.97656 16.7246 2.81836 16.7129 2.6543 16.6973C2.49023 16.6816 2.33203 16.6621 2.17969 16.6387C2.02734 16.6191 1.90039 16.5977 1.79883 16.5742L1.7168 16.5039L1.64648 16.5391C1.54102 16.5234 1.45312 16.5039 1.38281 16.4805C1.3125 16.4609 1.25195 16.4316 1.20117 16.3926C1.15039 16.3574 1.10742 16.3086 1.07227 16.2461C1.04102 16.1836 1.01172 16.1016 0.984375 16C0.972656 15.9648 0.966797 15.9277 0.966797 15.8887C0.966797 15.8457 0.960938 15.8066 0.949219 15.7715C0.925781 15.7129 0.908203 15.668 0.896484 15.6367C0.888672 15.6016 0.882812 15.5684 0.878906 15.5371C0.878906 15.5059 0.878906 15.4727 0.878906 15.4375C0.878906 15.3984 0.878906 15.3496 0.878906 15.291C0.878906 15.2051 0.863281 15.123 0.832031 15.0449C0.804688 14.9668 0.791016 14.8848 0.791016 14.7988C0.791016 14.6973 0.804688 14.5977 0.832031 14.5C0.863281 14.4023 0.878906 14.2988 0.878906 14.1895C0.878906 14.123 0.863281 14.0625 0.832031 14.0078C0.804688 13.9492 0.791016 13.8887 0.791016 13.8262C0.791016 13.7793 0.796875 13.7344 0.808594 13.6914C0.820312 13.6484 0.826172 13.6016 0.826172 13.5508C0.826172 13.4727 0.8125 13.3906 0.785156 13.3047C0.757812 13.2148 0.732422 13.1328 0.708984 13.0586C0.751953 12.9766 0.779297 12.8887 0.791016 12.7949C0.806641 12.7012 0.814453 12.6055 0.814453 12.5078C0.814453 12.3008 0.796875 12.0977 0.761719 11.8984C0.726562 11.6953 0.708984 11.4902 0.708984 11.2832C0.708984 11.1816 0.722656 11.084 0.75 10.9902C0.777344 10.8965 0.791016 10.7988 0.791016 10.6973C0.791016 10.5098 0.773438 10.334 0.738281 10.1699C0.703125 10.0059 0.669922 9.83398 0.638672 9.6543C0.662109 9.58789 0.693359 9.52148 0.732422 9.45508C0.771484 9.38477 0.791016 9.31055 0.791016 9.23242C0.791016 9.21289 0.787109 9.19336 0.779297 9.17383C0.771484 9.15039 0.763672 9.12891 0.755859 9.10938C0.755859 9.08594 0.761719 9.06445 0.773438 9.04492C0.785156 9.02539 0.791016 9.00391 0.791016 8.98047C0.791016 8.89062 0.771484 8.80469 0.732422 8.72266C0.693359 8.63672 0.673828 8.54297 0.673828 8.44141C0.673828 8.39062 0.677734 8.33008 0.685547 8.25977C0.697266 8.18555 0.708984 8.11133 0.720703 8.03711C0.736328 7.96289 0.751953 7.89258 0.767578 7.82617C0.787109 7.75586 0.806641 7.69727 0.826172 7.65039C0.853516 7.5957 0.882812 7.55664 0.914062 7.5332C0.949219 7.50977 0.984375 7.48047 1.01953 7.44531L1.05469 7.36914C1.11328 7.3418 1.18359 7.31836 1.26562 7.29883C1.34766 7.2793 1.43359 7.26367 1.52344 7.25195C1.61719 7.24023 1.70703 7.23047 1.79297 7.22266C1.88281 7.21094 1.96094 7.19727 2.02734 7.18164C2.10547 7.16211 2.18164 7.13477 2.25586 7.09961C2.33008 7.06055 2.41016 7.03516 2.49609 7.02344C2.55078 7.01562 2.60742 7.01367 2.66602 7.01758C2.72461 7.02148 2.7832 7.02344 2.8418 7.02344C2.88086 7.02344 2.91602 7.02344 2.94727 7.02344C2.98242 7.02344 3.01172 7.01172 3.03516 6.98828C3.04688 6.98828 3.08594 6.99414 3.15234 7.00586C3.22266 7.01367 3.30469 7.02734 3.39844 7.04688C3.49609 7.0625 3.59961 7.08203 3.70898 7.10547C3.81836 7.125 3.92188 7.14453 4.01953 7.16406C4.11719 7.18359 4.19922 7.20312 4.26562 7.22266C4.33594 7.23828 4.37891 7.24805 4.39453 7.25195C4.48828 7.29883 4.57227 7.36133 4.64648 7.43945C4.72461 7.51758 4.80859 7.58789 4.89844 7.65039C4.96094 7.69336 5.0293 7.73633 5.10352 7.7793C5.18164 7.81836 5.25391 7.86523 5.32031 7.91992C5.38672 7.9707 5.44141 8.03125 5.48438 8.10156C5.53125 8.16797 5.55469 8.24805 5.55469 8.3418C5.57422 8.39258 5.60742 8.42969 5.6543 8.45312C5.70508 8.47266 5.74805 8.5 5.7832 8.53516C5.80273 8.56641 5.82031 8.59961 5.83594 8.63477C5.85156 8.66602 5.875 8.69727 5.90625 8.72852C5.94141 8.85352 5.96875 8.97656 5.98828 9.09766C6.01172 9.21484 6.02344 9.33984 6.02344 9.47266C6.02344 9.52344 6.01758 9.5957 6.00586 9.68945C5.99805 9.7832 5.98438 9.88672 5.96484 10C5.94531 10.1094 5.92188 10.2246 5.89453 10.3457C5.87109 10.4668 5.84375 10.582 5.8125 10.6914C5.78516 10.7969 5.75586 10.8926 5.72461 10.9785C5.69336 11.0645 5.66211 11.127 5.63086 11.166C5.61523 11.1855 5.5957 11.1973 5.57227 11.2012C5.54883 11.2051 5.52734 11.2168 5.50781 11.2363C5.43359 11.3184 5.38086 11.375 5.34961 11.4062C5.31836 11.4375 5.29102 11.4609 5.26758 11.4766C5.24414 11.4922 5.21484 11.5078 5.17969 11.5234C5.14453 11.5391 5.08594 11.5762 5.00391 11.6348C5.01562 11.7051 5.04883 11.7539 5.10352 11.7812C5.16211 11.8086 5.2207 11.834 5.2793 11.8574C5.2832 11.8965 5.29688 11.9258 5.32031 11.9453C5.34766 11.9648 5.37695 11.9805 5.4082 11.9922C5.43945 12 5.4707 12.0078 5.50195 12.0156C5.53711 12.0234 5.56641 12.0352 5.58984 12.0508C5.59375 12.1055 5.60938 12.1445 5.63672 12.168C5.66797 12.1914 5.69727 12.2109 5.72461 12.2266C5.75586 12.2422 5.78125 12.2598 5.80078 12.2793C5.82031 12.2949 5.82617 12.3223 5.81836 12.3613C5.85352 12.3691 5.88281 12.3848 5.90625 12.4082C5.93359 12.4277 5.95703 12.4492 5.97656 12.4727C6 12.4961 6.02344 12.5195 6.04688 12.543C6.07031 12.5664 6.09961 12.582 6.13477 12.5898V12.6543C6.12695 12.7129 6.13086 12.7637 6.14648 12.8066C6.16602 12.8457 6.1875 12.8848 6.21094 12.9238C6.23438 12.9629 6.25586 13.0078 6.27539 13.0586C6.29883 13.1055 6.31055 13.166 6.31055 13.2402C6.31055 13.2598 6.31055 13.2754 6.31055 13.2871C6.31055 13.2988 6.31445 13.3145 6.32227 13.334C6.37305 13.377 6.40625 13.4297 6.42188 13.4922C6.4375 13.5508 6.44531 13.6074 6.44531 13.6621ZM4.77539 9.94141C4.77539 9.91797 4.76562 9.89258 4.74609 9.86523C4.72656 9.83398 4.71289 9.80273 4.70508 9.77148C4.69336 9.73633 4.68945 9.70117 4.69336 9.66602C4.70117 9.62695 4.70508 9.58594 4.70508 9.54297C4.70508 9.53906 4.69336 9.51758 4.66992 9.47852C4.64648 9.43555 4.62109 9.39062 4.59375 9.34375C4.56641 9.29688 4.53906 9.25391 4.51172 9.21484C4.48438 9.17578 4.46875 9.1543 4.46484 9.15039L4.47656 9.09766C4.47656 9.05859 4.46094 9.00977 4.42969 8.95117C4.39844 8.89258 4.36133 8.83594 4.31836 8.78125C4.27539 8.72266 4.22852 8.67188 4.17773 8.62891C4.12695 8.58203 4.08203 8.55078 4.04297 8.53516C4 8.51172 3.95508 8.50195 3.9082 8.50586C3.86523 8.50977 3.82227 8.51172 3.7793 8.51172C3.7207 8.51172 3.66211 8.50391 3.60352 8.48828C3.54883 8.46875 3.49414 8.44922 3.43945 8.42969C3.38477 8.40625 3.33008 8.38672 3.27539 8.37109C3.2207 8.35156 3.16406 8.3418 3.10547 8.3418C3.0625 8.3418 3.02734 8.35547 3 8.38281C2.97266 8.40625 2.92773 8.41797 2.86523 8.41797C2.82227 8.41797 2.7793 8.41211 2.73633 8.40039C2.69727 8.38867 2.65234 8.38281 2.60156 8.38281C2.57031 8.41016 2.53125 8.42969 2.48438 8.44141C2.44141 8.45312 2.39453 8.46289 2.34375 8.4707C2.29688 8.47461 2.24805 8.48242 2.19727 8.49414C2.15039 8.50195 2.10547 8.51562 2.0625 8.53516C2.04297 8.77734 2.02734 9.01758 2.01562 9.25586C2.00781 9.49414 2.00391 9.73438 2.00391 9.97656C2.00391 10.2227 2.00781 10.4707 2.01562 10.7207C2.02344 10.9707 2.02734 11.2227 2.02734 11.4766C2.04688 11.4844 2.06445 11.4883 2.08008 11.4883C2.09961 11.4883 2.11914 11.4883 2.13867 11.4883C2.23633 11.4883 2.33203 11.4746 2.42578 11.4473C2.51953 11.4199 2.63477 11.4062 2.77148 11.4062C2.80273 11.4062 2.82617 11.4023 2.8418 11.3945C2.91602 11.375 2.98633 11.3379 3.05273 11.2832C3.11914 11.2285 3.18945 11.1895 3.26367 11.166C3.33789 11.1387 3.41016 11.127 3.48047 11.1309C3.55078 11.1309 3.62305 11.1172 3.69727 11.0898C3.73242 11.0742 3.76367 11.0547 3.79102 11.0312C3.82227 11.0078 3.85156 10.9844 3.87891 10.9609C3.91016 10.9336 3.94141 10.9102 3.97266 10.8906C4.00391 10.8711 4.03906 10.8574 4.07812 10.8496C4.13281 10.7949 4.19141 10.748 4.25391 10.709C4.31641 10.666 4.38672 10.6367 4.46484 10.6211C4.5 10.5781 4.51562 10.5332 4.51172 10.4863C4.51172 10.4355 4.52344 10.3887 4.54688 10.3457C4.55859 10.3223 4.58398 10.3105 4.62305 10.3105C4.66602 10.3066 4.69336 10.2949 4.70508 10.2754C4.71289 10.2559 4.71289 10.2383 4.70508 10.2227C4.69727 10.207 4.69336 10.1934 4.69336 10.1816C4.69336 10.1504 4.70703 10.1172 4.73438 10.082C4.76172 10.043 4.77539 9.99609 4.77539 9.94141ZM5.16211 13.791C5.12695 13.7637 5.10352 13.7324 5.0918 13.6973C5.08008 13.6621 5.07422 13.627 5.07422 13.5918C5.07422 13.5527 5.07422 13.5176 5.07422 13.4863C5.07422 13.4551 5.06641 13.4297 5.05078 13.4102C5.01562 13.3711 4.98633 13.3398 4.96289 13.3164C4.94336 13.293 4.92188 13.2598 4.89844 13.2168C4.89062 13.209 4.86523 13.1973 4.82227 13.1816C4.7793 13.1621 4.75195 13.1465 4.74023 13.1348C4.7207 13.123 4.69336 13.1016 4.6582 13.0703C4.62305 13.0391 4.58398 13.0078 4.54102 12.9766C4.50195 12.9453 4.46484 12.916 4.42969 12.8887C4.39453 12.8574 4.36914 12.8379 4.35352 12.8301C4.31836 12.8066 4.26953 12.7988 4.20703 12.8066C4.14844 12.8105 4.09375 12.8027 4.04297 12.7832C4.00781 12.7441 3.95898 12.7109 3.89648 12.6836C3.83398 12.6562 3.76758 12.6328 3.69727 12.6133C3.62695 12.5938 3.55664 12.5801 3.48633 12.5723C3.41602 12.5605 3.35352 12.5547 3.29883 12.5547C3.25586 12.5547 3.17969 12.5586 3.07031 12.5664C2.96484 12.5703 2.85156 12.5762 2.73047 12.584C2.60938 12.5918 2.49609 12.6016 2.39062 12.6133C2.28516 12.6211 2.2168 12.6309 2.18555 12.6426C2.1543 12.7793 2.13086 12.9199 2.11523 13.0645C2.10352 13.2051 2.09766 13.3438 2.09766 13.4805C2.09766 13.7148 2.10938 13.9492 2.13281 14.1836C2.16016 14.418 2.18945 14.6523 2.2207 14.8867C2.20117 14.918 2.18555 14.9492 2.17383 14.9805C2.16602 15.0078 2.16211 15.043 2.16211 15.0859C2.16211 15.125 2.16406 15.1621 2.16797 15.1973C2.17188 15.2324 2.17773 15.2676 2.18555 15.3027C2.25195 15.334 2.32227 15.3555 2.39648 15.3672C2.4707 15.375 2.54297 15.3789 2.61328 15.3789C2.71094 15.3789 2.80664 15.373 2.90039 15.3613C2.99805 15.3496 3.0957 15.3379 3.19336 15.3262C3.29102 15.3145 3.38672 15.3066 3.48047 15.3027C3.57812 15.2949 3.67383 15.2949 3.76758 15.3027C3.7832 15.2754 3.80469 15.2559 3.83203 15.2441C3.85938 15.2285 3.88672 15.2168 3.91406 15.209C3.94141 15.2012 3.96875 15.1934 3.99609 15.1855C4.02734 15.1777 4.05469 15.166 4.07812 15.1504C4.12891 15.1191 4.16992 15.082 4.20117 15.0391C4.23633 14.9961 4.27148 14.957 4.30664 14.9219H4.58203C4.63672 14.8438 4.69727 14.7695 4.76367 14.6992C4.83398 14.625 4.90234 14.5547 4.96875 14.4883C5 14.4336 5.01562 14.377 5.01562 14.3184C5.01953 14.2598 5.03125 14.2012 5.05078 14.1426C5.07031 14.0801 5.09375 14.0234 5.12109 13.9727C5.14844 13.918 5.16211 13.8574 5.16211 13.791ZM13.0605 14.7285C13.084 14.8105 13.0957 14.8906 13.0957 14.9688C13.0957 15.0664 13.0781 15.1582 13.043 15.2441C13.0117 15.3301 12.9785 15.418 12.9434 15.5078C12.9004 15.543 12.8516 15.5703 12.7969 15.5898C12.7422 15.6094 12.6914 15.6348 12.6445 15.666C12.5625 15.7129 12.4922 15.7461 12.4336 15.7656C12.3789 15.7852 12.3242 15.7969 12.2695 15.8008C12.2148 15.8047 12.1562 15.8047 12.0938 15.8008C12.0312 15.7969 11.9531 15.7949 11.8594 15.7949C11.7148 15.7949 11.582 15.8125 11.4609 15.8477C11.3438 15.8789 11.2344 15.8945 11.1328 15.8945C11.0312 15.8945 10.9238 15.8867 10.8105 15.8711C10.7012 15.8516 10.5918 15.8418 10.4824 15.8418C10.416 15.8418 10.3516 15.8496 10.2891 15.8652C10.2305 15.877 10.1699 15.8984 10.1074 15.9297C10.0488 15.9297 9.99414 15.9121 9.94336 15.877C9.89648 15.8379 9.83984 15.8184 9.77344 15.8184C9.73828 15.8184 9.70703 15.8242 9.67969 15.8359C9.65234 15.8477 9.61914 15.8535 9.58008 15.8535C9.51367 15.8535 9.45117 15.8398 9.39258 15.8125C9.33789 15.7852 9.27734 15.7715 9.21094 15.7715C9.11328 15.7715 9.01172 15.793 8.90625 15.8359C8.80078 15.875 8.69336 15.8945 8.58398 15.8945C8.52148 15.8945 8.46484 15.8809 8.41406 15.8535C8.36719 15.8262 8.32031 15.793 8.27344 15.7539C8.23047 15.7109 8.18945 15.668 8.15039 15.625C8.11133 15.582 8.06836 15.543 8.02148 15.5078C8.01367 15.4609 7.99414 15.3867 7.96289 15.2852C7.93555 15.1836 7.90625 15.0781 7.875 14.9688C7.84375 14.8594 7.81641 14.7578 7.79297 14.6641C7.76953 14.5703 7.75781 14.5078 7.75781 14.4766C7.75781 14.4336 7.76367 14.3926 7.77539 14.3535C7.78711 14.3105 7.79297 14.2676 7.79297 14.2246C7.79297 14.1699 7.7832 14.1191 7.76367 14.0723C7.74414 14.0215 7.73438 13.9688 7.73438 13.9141C7.73438 13.9023 7.73438 13.8652 7.73438 13.8027C7.73828 13.7402 7.74023 13.6738 7.74023 13.6035C7.74414 13.5293 7.74609 13.4609 7.74609 13.3984C7.75 13.3359 7.75391 13.2988 7.75781 13.2871C7.75 13.2324 7.73438 13.1816 7.71094 13.1348C7.69141 13.084 7.67188 13.0312 7.65234 12.9766C7.69141 12.7617 7.71289 12.5586 7.7168 12.3672C7.7207 12.1719 7.72266 11.9629 7.72266 11.7402C7.72266 11.7207 7.71289 11.707 7.69336 11.6992C7.67383 11.6875 7.65039 11.6797 7.62305 11.6758C7.59961 11.6719 7.57422 11.6699 7.54688 11.6699C7.52344 11.6699 7.50586 11.6699 7.49414 11.6699C7.4707 11.6699 7.44531 11.668 7.41797 11.6641C7.39062 11.6602 7.36719 11.6445 7.34766 11.6172C7.27734 11.5977 7.2168 11.5625 7.16602 11.5117C7.11914 11.457 7.06836 11.4043 7.01367 11.3535V11.2832C7.00977 11.2168 7.01562 11.1543 7.03125 11.0957C7.05078 11.0332 7.07031 10.9727 7.08984 10.9141C7.11328 10.8516 7.13477 10.791 7.1543 10.7324C7.17383 10.6699 7.1875 10.6055 7.19531 10.5391C7.23047 10.5156 7.26758 10.5 7.30664 10.4922C7.3457 10.4805 7.35938 10.4453 7.34766 10.3867C7.38672 10.3555 7.4375 10.3418 7.5 10.3457C7.56641 10.3457 7.62109 10.3457 7.66406 10.3457H7.6875C7.69922 10.3027 7.70508 10.2617 7.70508 10.2227C7.70898 10.1797 7.71094 10.1367 7.71094 10.0938C7.71094 9.89062 7.69141 9.68945 7.65234 9.49023C7.61719 9.29102 7.59961 9.08984 7.59961 8.88672C7.59961 8.82812 7.60938 8.74609 7.62891 8.64062C7.64844 8.53125 7.67188 8.41992 7.69922 8.30664C7.72656 8.18945 7.75586 8.07812 7.78711 7.97266C7.81836 7.86328 7.84375 7.7793 7.86328 7.7207C7.97266 7.70117 8.07422 7.66992 8.16797 7.62695C8.26562 7.58398 8.36523 7.5625 8.4668 7.5625C8.52539 7.5625 8.58594 7.56836 8.64844 7.58008C8.71094 7.5918 8.76953 7.59766 8.82422 7.59766C8.87891 7.59766 8.92773 7.5918 8.9707 7.58008C9.01367 7.56836 9.05859 7.55664 9.10547 7.54492C9.15234 7.5332 9.20508 7.52148 9.26367 7.50977C9.32227 7.49805 9.39258 7.49219 9.47461 7.49219C9.78711 7.49219 10.1035 7.47852 10.4238 7.45117C10.748 7.41992 11.0684 7.37695 11.3848 7.32227C11.4043 7.32227 11.4219 7.31836 11.4375 7.31055C11.457 7.30273 11.4785 7.29883 11.502 7.29883C11.5137 7.29883 11.5254 7.30859 11.5371 7.32812C11.5527 7.34375 11.5645 7.35742 11.5723 7.36914C11.5957 7.35742 11.623 7.35156 11.6543 7.35156C11.6895 7.34766 11.7227 7.3457 11.7539 7.3457C11.8672 7.3457 11.9805 7.36328 12.0938 7.39844C12.207 7.42969 12.3184 7.45703 12.4277 7.48047C12.4473 7.55859 12.4648 7.63477 12.4805 7.70898C12.5 7.7832 12.5098 7.85938 12.5098 7.9375C12.5098 8.07031 12.4902 8.16992 12.4512 8.23633C12.4121 8.29883 12.3633 8.34961 12.3047 8.38867C12.2461 8.42383 12.1836 8.45898 12.1172 8.49414C12.0508 8.52539 11.9902 8.57617 11.9355 8.64648H11.8477C11.7031 8.63086 11.5586 8.63281 11.4141 8.65234C11.2695 8.67188 11.123 8.68164 10.9746 8.68164C10.916 8.68164 10.8633 8.6875 10.8164 8.69922C10.7734 8.70703 10.7324 8.71875 10.6934 8.73438C10.6582 8.75 10.6211 8.76758 10.582 8.78711C10.543 8.80273 10.498 8.81836 10.4473 8.83398C10.3848 8.82227 10.3262 8.81445 10.2715 8.81055C10.2168 8.80273 10.1582 8.79883 10.0957 8.79883C9.89258 8.79883 9.69531 8.82227 9.50391 8.86914C9.3125 8.91602 9.11914 8.94531 8.92383 8.95703C8.88867 9.00391 8.87109 9.05469 8.87109 9.10938C8.87109 9.18359 8.88281 9.25586 8.90625 9.32617C8.93359 9.39258 8.95117 9.46094 8.95898 9.53125C8.96289 9.60156 8.96289 9.67578 8.95898 9.75391C8.95898 9.82812 8.95898 9.90234 8.95898 9.97656C8.96289 10.0508 8.9707 10.123 8.98242 10.1934C8.99805 10.2637 9.02539 10.3281 9.06445 10.3867C9.08789 10.3945 9.11328 10.4004 9.14062 10.4043C9.17188 10.4082 9.20312 10.4102 9.23438 10.4102C9.33203 10.4102 9.42969 10.4004 9.52734 10.3809C9.62891 10.3574 9.72656 10.3457 9.82031 10.3457C9.97656 10.3457 10.1289 10.3672 10.2773 10.4102C10.4297 10.4492 10.5859 10.4688 10.7461 10.4688C10.7812 10.4688 10.8164 10.4609 10.8516 10.4453C10.8906 10.4297 10.9316 10.4219 10.9746 10.4219C10.9941 10.4219 11.0137 10.4297 11.0332 10.4453C11.0527 10.4609 11.0801 10.4688 11.1152 10.4688C11.1699 10.4688 11.2207 10.4551 11.2676 10.4277C11.3145 10.4004 11.3691 10.3867 11.4316 10.3867C11.4824 10.3867 11.5293 10.3984 11.5723 10.4219C11.6191 10.4414 11.6641 10.4668 11.707 10.498C11.75 10.5254 11.793 10.5527 11.8359 10.5801C11.8789 10.6035 11.9238 10.6172 11.9707 10.6211C11.9707 10.6992 11.9902 10.7734 12.0293 10.8438C12.0684 10.9141 12.0879 10.9883 12.0879 11.0664C12.0879 11.1289 12.0645 11.1953 12.0176 11.2656C11.9707 11.332 11.9141 11.3945 11.8477 11.4531C11.7812 11.5117 11.7109 11.5645 11.6367 11.6113C11.5664 11.6582 11.5059 11.6895 11.4551 11.7051C11.4238 11.7129 11.3926 11.7148 11.3613 11.7109C11.334 11.707 11.3086 11.7051 11.2852 11.7051C11.2344 11.7051 11.1836 11.7129 11.1328 11.7285C11.082 11.7441 11.0312 11.7617 10.9805 11.7812C10.9336 11.8008 10.8828 11.8184 10.8281 11.834C10.7773 11.8496 10.7227 11.8574 10.6641 11.8574C10.5781 11.8574 10.4922 11.8516 10.4062 11.8398C10.3242 11.8281 10.2383 11.8223 10.1484 11.8223C10.0977 11.8223 10.0508 11.8281 10.0078 11.8398C9.96484 11.8516 9.91797 11.8574 9.86719 11.8574C9.82422 11.8574 9.77344 11.8477 9.71484 11.8281C9.65625 11.8086 9.59766 11.7871 9.53906 11.7637C9.48047 11.7402 9.42578 11.7188 9.375 11.6992C9.32422 11.6797 9.28516 11.6699 9.25781 11.6699C9.24219 11.6699 9.22852 11.6758 9.2168 11.6875C9.20898 11.6953 9.19922 11.7051 9.1875 11.7168C9.17969 11.7246 9.16797 11.7324 9.15234 11.7402C9.14062 11.748 9.12305 11.748 9.09961 11.7402C9.08008 11.7754 9.06641 11.8125 9.05859 11.8516C9.05469 11.8867 9.05273 11.9219 9.05273 11.957C9.05273 12.0352 9.06055 12.1113 9.07617 12.1855C9.0918 12.2559 9.09961 12.3281 9.09961 12.4023C9.09961 12.457 9.0918 12.5137 9.07617 12.5723C9.06055 12.627 9.05273 12.6816 9.05273 12.7363C9.05273 12.7871 9.06055 12.8594 9.07617 12.9531C9.0918 13.043 9.10938 13.1387 9.12891 13.2402C9.15234 13.3418 9.17188 13.4453 9.1875 13.5508C9.20312 13.6523 9.21094 13.7402 9.21094 13.8145C9.21094 13.9355 9.20508 14.0566 9.19336 14.1777C9.18164 14.2949 9.17578 14.4141 9.17578 14.5352C9.28516 14.5664 9.39258 14.5859 9.49805 14.5938C9.60352 14.6016 9.71094 14.6055 9.82031 14.6055C10.0781 14.6055 10.3379 14.5898 10.5996 14.5586C10.8613 14.5273 11.123 14.5078 11.3848 14.5C11.4668 14.5 11.5469 14.502 11.625 14.5059C11.707 14.5098 11.7891 14.5117 11.8711 14.5117C11.9688 14.5117 12.0605 14.4902 12.1465 14.4473C12.2324 14.4043 12.3184 14.3828 12.4043 14.3828C12.5527 14.3828 12.6602 14.4492 12.7266 14.582L12.7734 14.5703C12.8086 14.5664 12.8379 14.5703 12.8613 14.582C12.8848 14.5938 12.9062 14.6074 12.9258 14.623C12.9492 14.6387 12.9707 14.6562 12.9902 14.6758C13.0098 14.6953 13.0332 14.7129 13.0605 14.7285ZM19.3652 11.0898C19.3652 11.1836 19.3457 11.291 19.3066 11.4121C19.2715 11.5332 19.2305 11.6504 19.1836 11.7637C19.1406 11.873 19.0996 11.9727 19.0605 12.0625C19.0254 12.1484 19.0098 12.2051 19.0137 12.2324C18.9824 12.2793 18.9434 12.3203 18.8965 12.3555C18.8496 12.3867 18.8086 12.4258 18.7734 12.4727C18.7422 12.5156 18.7207 12.5684 18.709 12.6309C18.6973 12.6934 18.668 12.7402 18.6211 12.7715C18.5977 12.791 18.5664 12.8105 18.5273 12.8301C18.4883 12.8457 18.4473 12.8633 18.4043 12.8828C18.3613 12.9023 18.3203 12.9199 18.2812 12.9355C18.2422 12.9512 18.2148 12.9648 18.1992 12.9766C18.168 12.9961 18.1406 13.0215 18.1172 13.0527C18.0977 13.0801 18.0723 13.1074 18.041 13.1348C18.0215 13.1426 18.002 13.1465 17.9824 13.1465C17.9629 13.1426 17.9434 13.1504 17.9238 13.1699L17.8887 13.2402C17.8613 13.2598 17.8301 13.2676 17.7949 13.2637C17.7598 13.2598 17.7266 13.2637 17.6953 13.2754C17.5273 13.3535 17.3574 13.4297 17.1855 13.5039C17.0176 13.5742 16.8398 13.6309 16.6523 13.6738C16.6797 13.7402 16.7188 13.793 16.7695 13.832C16.8203 13.8711 16.875 13.9043 16.9336 13.9316C16.9961 13.9551 17.0586 13.9785 17.1211 14.002C17.1875 14.0254 17.25 14.0547 17.3086 14.0898C17.3398 14.1094 17.3652 14.1348 17.3848 14.166C17.4082 14.1973 17.4355 14.2246 17.4668 14.248C17.5645 14.3184 17.666 14.3848 17.7715 14.4473C17.8809 14.5098 17.9883 14.5723 18.0938 14.6348C18.1992 14.6973 18.3027 14.7637 18.4043 14.834C18.5098 14.9004 18.6094 14.9766 18.7031 15.0625C18.7852 15.0742 18.8574 15.0977 18.9199 15.1328C18.9824 15.1641 19.041 15.2031 19.0957 15.25C19.1504 15.293 19.2012 15.3418 19.248 15.3965C19.2988 15.4512 19.3496 15.5078 19.4004 15.5664V15.6309C19.4004 15.7402 19.3945 15.8301 19.3828 15.9004C19.3711 15.9707 19.3477 16.0293 19.3125 16.0762C19.2773 16.123 19.2285 16.1621 19.166 16.1934C19.1074 16.2285 19.0293 16.2637 18.9316 16.2988C18.9004 16.3105 18.8691 16.3203 18.8379 16.3281C18.8066 16.3398 18.7734 16.3457 18.7383 16.3457C18.6836 16.3457 18.6172 16.3457 18.5391 16.3457C18.4648 16.3496 18.4023 16.3457 18.3516 16.334C18.3398 16.3301 18.3125 16.3184 18.2695 16.2988C18.2305 16.2793 18.1855 16.2559 18.1348 16.2285C18.0879 16.2051 18.043 16.1816 18 16.1582C17.9609 16.1348 17.9355 16.1172 17.9238 16.1055C17.8691 16.0586 17.8203 16.0039 17.7773 15.9414C17.7344 15.8789 17.6836 15.8301 17.625 15.7949C17.5508 15.752 17.4707 15.7266 17.3848 15.7188C17.3027 15.7109 17.2266 15.6855 17.1562 15.6426C17.0703 15.5918 16.998 15.5293 16.9395 15.4551C16.8809 15.377 16.8086 15.3105 16.7227 15.2559C16.6484 15.209 16.5645 15.1699 16.4707 15.1387C16.3809 15.1074 16.2969 15.0703 16.2188 15.0273C16.1523 14.9805 16.0938 14.9238 16.043 14.8574C15.9961 14.7871 15.9395 14.7246 15.873 14.6699C15.8418 14.6426 15.8047 14.623 15.7617 14.6113C15.7188 14.5996 15.6797 14.582 15.6445 14.5586C15.6133 14.5352 15.5879 14.5039 15.5684 14.4648C15.5488 14.4258 15.5176 14.4062 15.4746 14.4062H15.4512C15.3965 14.4609 15.3691 14.5312 15.3691 14.6172C15.3691 14.7188 15.3828 14.8203 15.4102 14.9219C15.4375 15.0195 15.4512 15.1191 15.4512 15.2207C15.4512 15.2637 15.4414 15.3086 15.4219 15.3555C15.4023 15.3984 15.3887 15.4414 15.3809 15.4844C15.3652 15.5312 15.3613 15.5801 15.3691 15.6309C15.377 15.6777 15.3809 15.7246 15.3809 15.7715C15.3809 15.8301 15.3613 15.8887 15.3223 15.9473C15.2832 16.0059 15.2344 16.0586 15.1758 16.1055C15.1172 16.1523 15.0547 16.1895 14.9883 16.2168C14.9219 16.248 14.8594 16.2637 14.8008 16.2637C14.7188 16.2637 14.6348 16.248 14.5488 16.2168C14.4629 16.1895 14.375 16.166 14.2852 16.1465C14.2383 16.0605 14.1934 15.9727 14.1504 15.8828C14.1113 15.793 14.0918 15.6992 14.0918 15.6016C14.0918 15.5664 14.0957 15.5352 14.1035 15.5078C14.1113 15.4766 14.1211 15.4453 14.1328 15.4141C14.082 15.293 14.0488 15.1699 14.0332 15.0449C14.0176 14.9199 14.0098 14.7949 14.0098 14.6699C14.0098 14.498 14.0254 14.332 14.0566 14.1719C14.0918 14.0078 14.1094 13.8418 14.1094 13.6738C14.1094 13.666 14.1074 13.6582 14.1035 13.6504C14.1035 13.6387 14.0996 13.6289 14.0918 13.6211L14.0215 13.5859C14.0137 13.5664 14.0117 13.5488 14.0156 13.5332C14.0195 13.5176 14.0215 13.5 14.0215 13.4805C14.0215 13.4531 14.0195 13.4199 14.0156 13.3809C14.0117 13.3418 14.0039 13.3027 13.9922 13.2637C13.9844 13.2246 13.9727 13.1895 13.957 13.1582C13.9414 13.123 13.9238 13.0977 13.9043 13.082C13.959 12.9922 13.9844 12.8945 13.9805 12.7891C13.9766 12.6797 13.9746 12.5703 13.9746 12.4609C13.9746 12.375 13.9883 12.293 14.0156 12.2148C14.043 12.1367 14.0566 12.0547 14.0566 11.9688C14.0566 11.8438 14.0508 11.7168 14.0391 11.5879C14.0273 11.4551 14.0215 11.3262 14.0215 11.2012C14.0215 11.0801 14.002 10.9668 13.9629 10.8613C13.9238 10.752 13.9043 10.6406 13.9043 10.5273C13.9043 10.4805 13.9141 10.4375 13.9336 10.3984C13.9531 10.3555 13.9668 10.3105 13.9746 10.2637C13.9941 10.1895 13.998 10.1152 13.9863 10.041C13.9785 9.9668 13.9746 9.89258 13.9746 9.81836C13.9746 9.7832 13.9824 9.75977 13.998 9.74805C14.0137 9.73242 14.0215 9.70898 14.0215 9.67773C14.0215 9.63477 14.0078 9.58789 13.9805 9.53711C13.9531 9.48633 13.9395 9.42773 13.9395 9.36133C13.9395 9.23633 13.9453 9.11133 13.957 8.98633C13.9688 8.85742 13.9746 8.72656 13.9746 8.59375C13.9746 8.53516 13.9844 8.47656 14.0039 8.41797C14.0234 8.35938 14.043 8.30273 14.0625 8.24805C14.082 8.18945 14.0957 8.13281 14.1035 8.07812C14.1152 8.01953 14.1113 7.96094 14.0918 7.90234C14.1191 7.87109 14.1504 7.85352 14.1855 7.84961C14.2207 7.8457 14.2539 7.83789 14.2852 7.82617C14.3477 7.79492 14.4062 7.76172 14.4609 7.72656C14.5156 7.69141 14.5742 7.66211 14.6367 7.63867C14.7031 7.60742 14.7676 7.58789 14.8301 7.58008C14.8926 7.57227 14.959 7.5625 15.0293 7.55078C15.0605 7.54297 15.0879 7.5293 15.1113 7.50977C15.1348 7.49023 15.1641 7.48047 15.1992 7.48047C15.2305 7.48047 15.2598 7.48633 15.2871 7.49805C15.3184 7.50977 15.3496 7.51562 15.3809 7.51562C15.4004 7.48438 15.416 7.4707 15.4277 7.47461C15.4434 7.47852 15.4668 7.48047 15.498 7.48047C15.5215 7.48047 15.5488 7.47656 15.5801 7.46875C15.6113 7.46094 15.6426 7.45312 15.6738 7.44531C15.7051 7.4375 15.7344 7.43164 15.7617 7.42773C15.7891 7.42383 15.8125 7.42578 15.832 7.43359C15.8711 7.43359 15.9082 7.42773 15.9434 7.41602C15.9785 7.4043 16.0137 7.39844 16.0488 7.39844C16.0918 7.39844 16.127 7.41016 16.1543 7.43359C16.1855 7.45703 16.2227 7.47266 16.2656 7.48047C16.3164 7.48828 16.3672 7.48828 16.418 7.48047C16.4688 7.47266 16.5176 7.46875 16.5645 7.46875C16.623 7.46875 16.6738 7.47461 16.7168 7.48633C16.7637 7.49805 16.8066 7.51367 16.8457 7.5332C16.8887 7.54883 16.9316 7.56641 16.9746 7.58594C17.0176 7.60547 17.0664 7.62305 17.1211 7.63867C17.1992 7.6582 17.2812 7.66797 17.3672 7.66797C17.4531 7.66406 17.5391 7.67773 17.625 7.70898C17.6719 7.72852 17.7227 7.75195 17.7773 7.7793C17.832 7.80273 17.8809 7.83008 17.9238 7.86133C17.9551 7.87695 17.9766 7.89648 17.9883 7.91992C18 7.94336 18.0176 7.96484 18.041 7.98438C18.0801 8.00391 18.1172 8.01172 18.1523 8.00781C18.1875 8.00391 18.2148 8.00781 18.2344 8.01953C18.2617 8.03516 18.3027 8.07227 18.3574 8.13086C18.4121 8.18945 18.4707 8.25391 18.5332 8.32422C18.5996 8.39453 18.6621 8.46289 18.7207 8.5293C18.7793 8.5957 18.8262 8.64648 18.8613 8.68164L18.8438 8.72852C18.8438 8.77539 18.8535 8.81836 18.873 8.85742C18.8965 8.89648 18.9238 8.93359 18.9551 8.96875C18.9863 9 19.0176 9.0332 19.0488 9.06836C19.0801 9.10352 19.1055 9.14258 19.125 9.18555C19.1445 9.20898 19.1523 9.23828 19.1484 9.27344C19.1445 9.30469 19.1523 9.33984 19.1719 9.37891C19.2031 9.44531 19.2305 9.51172 19.2539 9.57812C19.2773 9.64062 19.3145 9.70117 19.3652 9.75977C19.373 9.79492 19.3711 9.83398 19.3594 9.87695C19.3516 9.91602 19.3477 9.95703 19.3477 10C19.3477 10.0781 19.3633 10.1484 19.3945 10.2109C19.4297 10.2734 19.4473 10.3477 19.4473 10.4336C19.4473 10.5469 19.4336 10.6543 19.4062 10.7559C19.3789 10.8574 19.3652 10.9688 19.3652 11.0898ZM17.6602 9.2207L17.5723 9.18555C17.5371 9.13477 17.4941 9.07812 17.4434 9.01562C17.3926 8.95312 17.3359 8.91797 17.2734 8.91016C17.2578 8.88281 17.2383 8.86914 17.2148 8.86914C17.1953 8.86914 17.1758 8.87695 17.1562 8.89258C17.1406 8.9043 17.1191 8.91016 17.0918 8.91016C17.0488 8.91016 16.998 8.89844 16.9395 8.875C16.8809 8.84766 16.7969 8.83398 16.6875 8.83398C16.6562 8.83398 16.6191 8.82227 16.5762 8.79883C16.5332 8.77539 16.4941 8.75977 16.459 8.75195C16.3691 8.74023 16.2695 8.73242 16.1602 8.72852C16.0508 8.7207 15.9512 8.7168 15.8613 8.7168C15.8223 8.7168 15.791 8.72656 15.7676 8.74609C15.7441 8.76562 15.7148 8.7793 15.6797 8.78711C15.6406 8.79883 15.5938 8.80664 15.5391 8.81055C15.4844 8.81445 15.4316 8.82422 15.3809 8.83984C15.334 8.85156 15.293 8.87305 15.2578 8.9043C15.2266 8.93164 15.2109 8.97656 15.2109 9.03906C15.2109 9.11328 15.2246 9.18164 15.252 9.24414C15.2793 9.30664 15.293 9.375 15.293 9.44922C15.293 9.52734 15.2793 9.60352 15.252 9.67773C15.2246 9.75195 15.2109 9.82812 15.2109 9.90625C15.2109 10.0547 15.2188 10.2051 15.2344 10.3574C15.25 10.5059 15.2578 10.6582 15.2578 10.8145C15.2578 10.9512 15.2695 11.0859 15.293 11.2188C15.3164 11.3477 15.3281 11.4805 15.3281 11.6172C15.3281 11.7188 15.3203 11.8223 15.3047 11.9277C15.2891 12.0293 15.2812 12.1309 15.2812 12.2324C15.2812 12.2793 15.2832 12.3262 15.2871 12.373C15.2949 12.4199 15.3086 12.4648 15.3281 12.5078C15.3906 12.4844 15.457 12.4707 15.5273 12.4668C15.6016 12.459 15.6758 12.457 15.75 12.4609C15.8242 12.4609 15.8984 12.4648 15.9727 12.4727C16.0469 12.4766 16.1172 12.4766 16.1836 12.4727H16.3359C16.3711 12.4414 16.4062 12.4199 16.4414 12.4082C16.4805 12.3926 16.5195 12.3809 16.5586 12.373C16.6016 12.3652 16.6426 12.3574 16.6816 12.3496C16.7246 12.3418 16.7656 12.3301 16.8047 12.3145C16.8398 12.2988 16.875 12.2754 16.9102 12.2441C16.9453 12.2129 16.9785 12.1855 17.0098 12.1621C17.0449 12.1348 17.0801 12.1133 17.1152 12.0977C17.1543 12.0781 17.1953 12.0703 17.2383 12.0742H17.3086C17.3242 12.0273 17.3477 11.9863 17.3789 11.9512C17.4102 11.916 17.4434 11.8828 17.4785 11.8516C17.5137 11.8164 17.5469 11.7812 17.5781 11.7461C17.6133 11.707 17.6406 11.6641 17.6602 11.6172C17.707 11.6055 17.752 11.584 17.7949 11.5527C17.8379 11.5176 17.8691 11.4766 17.8887 11.4297L17.9707 11.3828V11.3066L18.041 11.2715C18.0605 11.2363 18.0684 11.2031 18.0645 11.1719C18.0645 11.1406 18.0645 11.1055 18.0645 11.0664C18.0645 11.0391 18.0703 11.0039 18.082 10.9609C18.0977 10.9141 18.1133 10.8633 18.1289 10.8086C18.1484 10.75 18.1641 10.6875 18.1758 10.6211C18.1914 10.5508 18.1992 10.4766 18.1992 10.3984C18.1992 10.3594 18.1953 10.3281 18.1875 10.3047C18.1797 10.2812 18.1699 10.2617 18.1582 10.2461C18.1465 10.2266 18.1328 10.207 18.1172 10.1875C18.1016 10.168 18.0879 10.1406 18.0762 10.1055C18.0684 10.0781 18.0625 10.0469 18.0586 10.0117C18.0547 9.97266 18.0508 9.93555 18.0469 9.90039C18.0469 9.86523 18.043 9.83203 18.0352 9.80078C18.0312 9.76953 18.0215 9.74414 18.0059 9.72461C17.9512 9.63477 17.8906 9.55078 17.8242 9.47266C17.7578 9.39453 17.7031 9.31055 17.6602 9.2207ZM25.7695 15.3496C25.7695 15.4355 25.75 15.5234 25.7109 15.6133C25.6758 15.7031 25.6465 15.7871 25.623 15.8652C25.5723 15.877 25.5293 15.8906 25.4941 15.9062C25.4629 15.918 25.4316 15.9297 25.4004 15.9414C25.3691 15.9531 25.334 15.9648 25.2949 15.9766C25.2559 15.9844 25.2051 15.9883 25.1426 15.9883C25.1074 15.9883 25.084 15.9922 25.0723 16C25.0605 16.0078 25.0488 16.0176 25.0371 16.0293C25.0254 16.041 25.0117 16.0508 24.9961 16.0586C24.9805 16.0664 24.9531 16.0703 24.9141 16.0703C24.8672 16.0703 24.8184 16.0645 24.7676 16.0527C24.7207 16.041 24.6699 16.0312 24.6152 16.0234C24.6152 16.0273 24.6133 16.0312 24.6094 16.0352C24.6094 16.0391 24.6094 16.0449 24.6094 16.0527C24.6055 16.0605 24.6035 16.0664 24.6035 16.0703C24.5801 16.0703 24.5527 16.0625 24.5215 16.0469C24.4902 16.0312 24.457 16.0234 24.4219 16.0234H23.7773C23.6641 16.0234 23.5566 16.0371 23.4551 16.0645C23.3535 16.0918 23.248 16.1055 23.1387 16.1055C23.0605 16.1055 22.9844 16.0996 22.9102 16.0879C22.8359 16.0762 22.7598 16.0703 22.6816 16.0703C22.5176 16.0703 22.3574 16.0879 22.2012 16.123C22.0449 16.1621 21.8848 16.1816 21.7207 16.1816C21.5723 16.1816 21.4219 16.1582 21.2695 16.1113C21.1172 16.0645 20.9844 16 20.8711 15.918C20.8164 15.7734 20.7617 15.6328 20.707 15.4961C20.6562 15.3555 20.6309 15.207 20.6309 15.0508C20.6309 14.9531 20.6504 14.8613 20.6895 14.7754C20.7285 14.6895 20.748 14.5977 20.748 14.5C20.748 14.4531 20.7402 14.4102 20.7246 14.3711C20.709 14.3281 20.6914 14.2871 20.6719 14.248C20.6523 14.209 20.6348 14.1699 20.6191 14.1309C20.6035 14.0918 20.5957 14.0547 20.5957 14.0195C20.5957 13.9609 20.6035 13.9023 20.6191 13.8438C20.6348 13.7812 20.6523 13.7207 20.6719 13.6621C20.6914 13.6035 20.709 13.5449 20.7246 13.4863C20.7402 13.4238 20.748 13.3613 20.748 13.2988C20.748 13.1387 20.7285 12.9805 20.6895 12.8242C20.6504 12.6641 20.6309 12.502 20.6309 12.3379C20.6309 12.1699 20.6387 12.002 20.6543 11.834C20.6699 11.666 20.6777 11.4941 20.6777 11.3184L20.666 10.3867C20.666 10.3203 20.6602 10.2578 20.6484 10.1992C20.6367 10.1406 20.6309 10.0781 20.6309 10.0117C20.6309 9.93359 20.6445 9.85547 20.6719 9.77734C20.6992 9.69922 20.7129 9.62109 20.7129 9.54297C20.7129 9.48828 20.7051 9.43555 20.6895 9.38477C20.6738 9.33008 20.666 9.27539 20.666 9.2207C20.666 9.16602 20.6738 9.11328 20.6895 9.0625C20.7051 9.00781 20.7129 8.95312 20.7129 8.89844C20.7129 8.80078 20.6992 8.70703 20.6719 8.61719C20.6445 8.52344 20.6309 8.42773 20.6309 8.33008C20.6309 8.24805 20.6406 8.16406 20.6602 8.07812C20.6836 7.98828 20.7168 7.90625 20.7598 7.83203C20.8066 7.75781 20.8633 7.69727 20.9297 7.65039C20.9961 7.59961 21.0762 7.57422 21.1699 7.57422C21.2246 7.57422 21.291 7.57812 21.3691 7.58594C21.4512 7.59375 21.5176 7.61133 21.5684 7.63867C21.6152 7.6582 21.6621 7.69922 21.709 7.76172C21.7598 7.82031 21.8066 7.88672 21.8496 7.96094C21.8926 8.03125 21.9297 8.10352 21.9609 8.17773C21.9922 8.25195 22.0137 8.31445 22.0254 8.36523C22.0488 8.48633 22.0625 8.61133 22.0664 8.74023C22.0742 8.86523 22.0781 8.99414 22.0781 9.12695C22.0781 9.25586 22.0742 9.38672 22.0664 9.51953C22.0625 9.64844 22.0605 9.77344 22.0605 9.89453C22.0605 10.0586 22.0684 10.2227 22.084 10.3867C22.0996 10.5508 22.1074 10.7188 22.1074 10.8906C22.1074 11.0117 22.0898 11.1309 22.0547 11.248C22.0234 11.3652 22.0078 11.4844 22.0078 11.6055C22.0078 11.6953 22.0234 11.7793 22.0547 11.8574C22.0898 11.9316 22.1074 12.0078 22.1074 12.0859C22.1074 12.2578 22.1016 12.4258 22.0898 12.5898C22.0781 12.75 22.0723 12.9141 22.0723 13.082C22.0723 13.2461 22.0762 13.4062 22.084 13.5625C22.0918 13.7188 22.0957 13.875 22.0957 14.0312C22.0957 14.1094 22.0938 14.1855 22.0898 14.2598C22.0859 14.3301 22.0801 14.4023 22.0723 14.4766C22.0957 14.5547 22.1719 14.6094 22.3008 14.6406C22.4297 14.668 22.5742 14.6855 22.7344 14.6934C22.8945 14.6973 23.0508 14.6953 23.2031 14.6875C23.3555 14.6758 23.4668 14.6699 23.5371 14.6699C23.5918 14.6699 23.6445 14.6777 23.6953 14.6934C23.75 14.709 23.8047 14.7168 23.8594 14.7168C23.9453 14.7168 24.0273 14.7031 24.1055 14.6758C24.1836 14.6484 24.2656 14.6348 24.3516 14.6348C24.4062 14.6348 24.457 14.6406 24.5039 14.6523C24.5547 14.6641 24.6074 14.6699 24.6621 14.6699C24.7949 14.6777 24.9082 14.6895 25.002 14.7051C25.0957 14.7168 25.1816 14.7402 25.2598 14.7754C25.3379 14.8105 25.4102 14.8594 25.4766 14.9219C25.5469 14.9844 25.623 15.0684 25.7051 15.1738C25.748 15.2285 25.7695 15.2871 25.7695 15.3496ZM27.9551 6.36133C27.9551 6.43945 27.9375 6.51367 27.9023 6.58398C27.8672 6.6543 27.8438 6.72461 27.832 6.79492C27.7734 6.82617 27.709 6.85742 27.6387 6.88867C27.5723 6.91992 27.5215 6.96875 27.4863 7.03516C27.4668 7.02734 27.4492 7.02344 27.4336 7.02344C27.418 7.02344 27.4004 7.02344 27.3809 7.02344C27.2949 7.02344 27.2148 7.04102 27.1406 7.07617C27.0664 7.10742 26.9902 7.13086 26.9121 7.14648C26.8223 7.0918 26.7246 7.04883 26.6191 7.01758C26.5176 6.98242 26.418 6.9375 26.3203 6.88281C26.3125 6.80859 26.2988 6.74414 26.2793 6.68945C26.2598 6.63477 26.25 6.57031 26.25 6.49609C26.25 6.44141 26.2266 6.39062 26.1797 6.34375C26.1328 6.29297 26.1035 6.24023 26.0918 6.18555C26.123 6.1582 26.1465 6.125 26.1621 6.08594C26.1816 6.04688 26.1973 6.00586 26.209 5.96289C26.2207 5.91992 26.2285 5.87695 26.2324 5.83398C26.2363 5.79102 26.2422 5.75195 26.25 5.7168C26.2773 5.71289 26.2988 5.70312 26.3145 5.6875C26.334 5.66797 26.3496 5.64648 26.3613 5.62305C26.373 5.5957 26.3848 5.57031 26.3965 5.54688C26.4082 5.52344 26.4238 5.50391 26.4434 5.48828C26.502 5.47266 26.5566 5.45312 26.6074 5.42969C26.6582 5.40234 26.707 5.37695 26.7539 5.35352C26.8047 5.33008 26.8555 5.31055 26.9062 5.29492C26.9609 5.2793 27.0215 5.27148 27.0879 5.27148C27.1387 5.27148 27.1934 5.28516 27.252 5.3125C27.3105 5.33984 27.3672 5.375 27.4219 5.41797C27.4766 5.45703 27.5273 5.5 27.5742 5.54688C27.6211 5.59375 27.6562 5.63867 27.6797 5.68164C27.6992 5.70508 27.707 5.73047 27.7031 5.75781C27.6992 5.78516 27.7031 5.81055 27.7148 5.83398C27.7383 5.88086 27.7637 5.92383 27.791 5.96289C27.8184 6.00195 27.8438 6.04102 27.8672 6.08008C27.8945 6.11523 27.916 6.15625 27.9316 6.20312C27.9473 6.24609 27.9551 6.29883 27.9551 6.36133ZM28.1074 10.8262C28.1074 10.9473 28.0879 11.0684 28.0488 11.1895C28.0098 11.3105 27.9902 11.4336 27.9902 11.5586C27.9902 11.6016 27.9961 11.6445 28.0078 11.6875C28.0195 11.7266 28.0254 11.7676 28.0254 11.8105C28.0254 11.8965 28.0137 11.9844 27.9902 12.0742C27.9668 12.1602 27.9551 12.248 27.9551 12.3379C27.9551 12.4434 27.9785 12.5449 28.0254 12.6426C28.002 12.6855 27.9863 12.7285 27.9785 12.7715C27.9707 12.8105 27.9668 12.8555 27.9668 12.9062C27.9668 13.0742 27.9688 13.2441 27.9727 13.416C27.9766 13.5879 27.9785 13.7617 27.9785 13.9375C27.9785 14.0273 27.9824 14.1191 27.9902 14.2129C28.002 14.3027 28.0254 14.3867 28.0605 14.4648C28.0254 14.543 28.0098 14.625 28.0137 14.7109C28.0215 14.7969 28.0254 14.8828 28.0254 14.9688C28.0254 15 28.0195 15.0312 28.0078 15.0625C27.9961 15.0898 27.9902 15.123 27.9902 15.1621C27.9902 15.2207 27.9941 15.2793 28.002 15.3379C28.0098 15.3926 28.0137 15.4492 28.0137 15.5078C28.0137 15.5664 27.998 15.6211 27.9668 15.6719C27.9355 15.7188 27.8945 15.7598 27.8438 15.7949C27.793 15.8301 27.7383 15.8574 27.6797 15.877C27.6211 15.8965 27.5645 15.9062 27.5098 15.9062C27.4707 15.9062 27.4102 15.8906 27.3281 15.8594C27.25 15.8242 27.168 15.7832 27.082 15.7363C27 15.6895 26.9238 15.6426 26.8535 15.5957C26.7832 15.5449 26.7383 15.5039 26.7188 15.4727C26.707 15.457 26.6914 15.4277 26.6719 15.3848C26.6562 15.3418 26.6387 15.2949 26.6191 15.2441C26.6035 15.1934 26.5898 15.1465 26.5781 15.1035C26.5664 15.0566 26.5605 15.0234 26.5605 15.0039C26.5605 14.9805 26.5664 14.959 26.5781 14.9395C26.5898 14.9199 26.5957 14.8965 26.5957 14.8691C26.5957 14.8145 26.582 14.7637 26.5547 14.7168C26.5273 14.6699 26.5137 14.625 26.5137 14.582C26.5137 14.5391 26.5215 14.5 26.5371 14.4648C26.5527 14.4258 26.5605 14.3848 26.5605 14.3418C26.5605 14.3066 26.5527 14.2734 26.5371 14.2422C26.5215 14.2109 26.5137 14.1738 26.5137 14.1309C26.5137 14.0566 26.5234 13.9824 26.543 13.9082C26.5664 13.8301 26.5898 13.752 26.6133 13.6738C26.6406 13.5957 26.6641 13.5176 26.6836 13.4395C26.707 13.3574 26.7188 13.2754 26.7188 13.1934C26.7188 13.1035 26.7148 13.0117 26.707 12.918C26.7031 12.8242 26.6914 12.7324 26.6719 12.6426C26.6641 12.5879 26.6484 12.5371 26.625 12.4902C26.6055 12.4434 26.5957 12.3887 26.5957 12.3262C26.5957 12.2715 26.6016 12.2188 26.6133 12.168C26.6289 12.1133 26.6367 12.0586 26.6367 12.0039C26.6367 11.9141 26.6113 11.8301 26.5605 11.752C26.6113 11.6738 26.6445 11.5859 26.6602 11.4883C26.6758 11.3867 26.6836 11.291 26.6836 11.2012C26.6836 11.0918 26.6719 10.9727 26.6484 10.8438C26.625 10.7148 26.5801 10.6055 26.5137 10.5156C26.5449 10.3945 26.5547 10.2754 26.543 10.1582C26.5312 10.0371 26.5254 9.91602 26.5254 9.79492C26.5254 9.7168 26.5371 9.63281 26.5605 9.54297C26.541 9.48828 26.5098 9.43945 26.4668 9.39648C26.4277 9.35352 26.4082 9.29883 26.4082 9.23242C26.4082 9.2207 26.4141 9.19922 26.4258 9.16797C26.4375 9.13672 26.4512 9.09961 26.4668 9.05664C26.4824 9.01367 26.4961 8.96875 26.5078 8.92188C26.5195 8.875 26.5254 8.83008 26.5254 8.78711C26.5254 8.7168 26.5117 8.65039 26.4844 8.58789C26.457 8.52539 26.4434 8.46094 26.4434 8.39453C26.4434 8.28516 26.4629 8.1875 26.502 8.10156C26.541 8.01562 26.5859 7.92773 26.6367 7.83789C26.8086 7.75195 26.9883 7.70898 27.1758 7.70898C27.2422 7.70898 27.3066 7.71484 27.3691 7.72656C27.4355 7.73438 27.502 7.74805 27.5684 7.76758C27.584 7.7793 27.6172 7.82422 27.668 7.90234C27.7188 7.98047 27.7695 8.06641 27.8203 8.16016C27.875 8.25391 27.9219 8.3418 27.9609 8.42383C28.0039 8.50586 28.0254 8.55469 28.0254 8.57031C28.0254 8.67188 28.0195 8.77344 28.0078 8.875C27.9961 8.97266 27.9902 9.07227 27.9902 9.17383C27.9902 9.25586 27.9766 9.33594 27.9492 9.41406C27.9219 9.48828 27.9082 9.56445 27.9082 9.64258C27.9082 9.69727 27.9102 9.76562 27.9141 9.84766C27.918 9.92578 27.9238 10.0098 27.9316 10.0996C27.9395 10.1855 27.9473 10.2695 27.9551 10.3516C27.9668 10.4336 27.9785 10.5 27.9902 10.5508C27.9941 10.5703 28.002 10.5938 28.0137 10.6211C28.0254 10.6445 28.0371 10.6699 28.0488 10.6973C28.0645 10.7246 28.0781 10.75 28.0898 10.7734C28.1016 10.7969 28.1074 10.8145 28.1074 10.8262ZM35.9355 14.7754C35.9355 14.8223 35.9141 14.8633 35.8711 14.8984C35.832 14.9336 35.8008 14.9688 35.7773 15.0039C35.7578 15.0273 35.75 15.0527 35.7539 15.0801C35.7578 15.1074 35.7539 15.1348 35.7422 15.1621C35.7227 15.1816 35.6992 15.1934 35.6719 15.1973C35.6484 15.2012 35.6309 15.2129 35.6191 15.2324C35.5957 15.2637 35.5742 15.3008 35.5547 15.3438C35.5352 15.3867 35.5137 15.4297 35.4902 15.4727C35.4707 15.5117 35.4453 15.5488 35.4141 15.584C35.3867 15.6191 35.3516 15.6465 35.3086 15.666C35.2852 15.6777 35.2578 15.6855 35.2266 15.6895C35.1992 15.6895 35.1699 15.6895 35.1387 15.6895C35.0566 15.6895 34.9668 15.6758 34.8691 15.6484C34.7754 15.6211 34.7012 15.5742 34.6465 15.5078C34.623 15.4961 34.5859 15.4824 34.5352 15.4668C34.4883 15.4473 34.4375 15.4297 34.3828 15.4141C34.332 15.3945 34.2832 15.377 34.2363 15.3613C34.1895 15.3418 34.1582 15.3262 34.1426 15.3145C34.123 15.2949 34.1055 15.2656 34.0898 15.2266C34.0742 15.1836 34.0566 15.1484 34.0371 15.1211C34.0137 15.0898 33.9863 15.0645 33.9551 15.0449C33.9238 15.0254 33.8984 15 33.8789 14.9688C33.8555 14.9336 33.8398 14.8945 33.832 14.8516C33.8281 14.8047 33.8164 14.7637 33.7969 14.7285C33.75 14.627 33.6875 14.5293 33.6094 14.4355C33.5312 14.3379 33.4531 14.2441 33.375 14.1543C33.332 14.1035 33.2715 14.0449 33.1934 13.9785C33.1152 13.9121 33.0605 13.8535 33.0293 13.8027C33.0176 13.7793 33.0117 13.7539 33.0117 13.7266C33.0117 13.6992 33.0059 13.6738 32.9941 13.6504C32.9707 13.5957 32.9414 13.5469 32.9062 13.5039C32.8711 13.457 32.8477 13.4004 32.8359 13.334C32.7891 13.2637 32.7305 13.2031 32.6602 13.1523C32.5938 13.0977 32.5371 13.0312 32.4902 12.9531C32.4355 12.8672 32.373 12.7891 32.3027 12.7188C32.2363 12.6445 32.1699 12.5723 32.1035 12.502C32.041 12.4277 31.9844 12.3496 31.9336 12.2676C31.8828 12.1855 31.8477 12.0898 31.8281 11.9805C31.7305 11.8789 31.625 11.7832 31.5117 11.6934C31.3984 11.5996 31.3125 11.4902 31.2539 11.3652C31.2227 11.3105 31.1973 11.2637 31.1777 11.2246C31.1582 11.1816 31.1348 11.1445 31.1074 11.1133C31.0801 11.082 31.0469 11.0527 31.0078 11.0254C30.9727 10.998 30.9219 10.9688 30.8555 10.9375C30.8438 11.0039 30.8359 11.0723 30.832 11.1426C30.832 11.209 30.832 11.2754 30.832 11.3418C30.832 11.5527 30.8438 11.7617 30.8672 11.9688C30.8906 12.1719 30.9023 12.3789 30.9023 12.5898C30.9023 12.6641 30.8945 12.7344 30.8789 12.8008C30.8633 12.8672 30.8555 12.9336 30.8555 13C30.8555 13.1094 30.8672 13.2168 30.8906 13.3223C30.918 13.4238 30.9316 13.5293 30.9316 13.6387C30.9316 13.6699 30.9355 13.6953 30.9434 13.7148C30.9512 13.7344 30.9609 13.752 30.9727 13.7676C30.9844 13.7793 30.9941 13.793 31.002 13.8086C31.0098 13.8203 31.0137 13.8379 31.0137 13.8613C31.0137 13.9238 31.0078 13.9844 30.9961 14.043C30.9844 14.1016 30.9785 14.1621 30.9785 14.2246C30.9785 14.2559 30.9844 14.2988 30.9961 14.3535C31.0117 14.4082 31.0293 14.4648 31.0488 14.5234C31.0684 14.582 31.0879 14.6387 31.1074 14.6934C31.1309 14.7441 31.1523 14.7832 31.1719 14.8105C31.1406 14.877 31.1133 14.9395 31.0898 14.998C31.0664 15.0527 31.0469 15.1094 31.0312 15.168C31.0195 15.2227 31.0117 15.2812 31.0078 15.3438C31.0039 15.4023 31.0059 15.4688 31.0137 15.543C30.9941 15.5742 30.9492 15.6172 30.8789 15.6719C30.8086 15.7227 30.7305 15.7734 30.6445 15.8242C30.5586 15.875 30.4766 15.9199 30.3984 15.959C30.3203 15.9941 30.2656 16.0117 30.2344 16.0117C30.1992 16.0117 30.1719 16.0078 30.1523 16C30.1328 15.9961 30.1172 15.9883 30.1055 15.9766C30.0938 15.9648 30.0801 15.9531 30.0645 15.9414C30.0527 15.9258 30.0332 15.9102 30.0059 15.8945C29.9824 15.875 29.9492 15.8633 29.9062 15.8594C29.8672 15.8516 29.8359 15.8379 29.8125 15.8184C29.7773 15.7871 29.7383 15.7344 29.6953 15.6602C29.6562 15.582 29.6191 15.5 29.584 15.4141C29.5527 15.3281 29.5254 15.2441 29.502 15.1621C29.4785 15.0801 29.4668 15.0156 29.4668 14.9688C29.4668 14.9062 29.4824 14.8457 29.5137 14.7871C29.5488 14.7285 29.5723 14.6719 29.584 14.6172C29.6035 14.5156 29.6191 14.4023 29.6309 14.2773C29.6465 14.1523 29.6543 14.0352 29.6543 13.9258C29.6543 13.8164 29.6309 13.7109 29.584 13.6094C29.6074 13.5391 29.623 13.4668 29.6309 13.3926C29.6387 13.3145 29.6426 13.2402 29.6426 13.1699C29.6426 13.0176 29.627 12.8555 29.5957 12.6836C29.5645 12.5078 29.5098 12.3535 29.4316 12.2207C29.4355 12.1543 29.4473 12.0918 29.4668 12.0332C29.4902 11.9707 29.5137 11.9102 29.5371 11.8516C29.5605 11.793 29.584 11.7344 29.6074 11.6758C29.6309 11.6133 29.6465 11.5508 29.6543 11.4883C29.6738 11.3906 29.6777 11.2949 29.666 11.2012C29.6582 11.1074 29.6543 11.0156 29.6543 10.9258C29.6543 10.875 29.6582 10.832 29.666 10.7969C29.6738 10.7578 29.6875 10.7168 29.707 10.6738C29.6992 10.6191 29.6836 10.5664 29.6602 10.5156C29.6406 10.4648 29.627 10.4121 29.6191 10.3574C29.6113 10.2988 29.6094 10.2402 29.6133 10.1816C29.6172 10.1191 29.6191 10.0547 29.6191 9.98828C29.6191 9.91406 29.6133 9.84375 29.6016 9.77734C29.5898 9.71094 29.584 9.64062 29.584 9.56641C29.584 9.50781 29.5957 9.45312 29.6191 9.40234C29.6426 9.34766 29.6543 9.29102 29.6543 9.23242C29.6543 9.0957 29.6406 8.95898 29.6133 8.82227C29.5859 8.68164 29.5723 8.54297 29.5723 8.40625C29.5723 8.30859 29.6074 8.21875 29.6777 8.13672C29.752 8.05078 29.8242 7.98047 29.8945 7.92578C30.1641 7.95703 30.3945 8.03906 30.5859 8.17188C30.7812 8.30469 30.9121 8.50586 30.9785 8.77539C30.9824 8.80273 30.9902 8.82227 31.002 8.83398C31.0137 8.8418 31.0254 8.84766 31.0371 8.85156C31.0527 8.85156 31.0684 8.85352 31.084 8.85742C31.0996 8.86133 31.1152 8.87109 31.1309 8.88672C31.1582 8.91797 31.1719 8.95117 31.1719 8.98633C31.1758 9.02148 31.1875 9.05469 31.207 9.08594C31.2695 9.16016 31.3125 9.20508 31.3359 9.2207C31.3633 9.23242 31.3848 9.24414 31.4004 9.25586C31.4199 9.26758 31.4414 9.29492 31.4648 9.33789C31.4922 9.37695 31.5371 9.46094 31.5996 9.58984C31.6582 9.64844 31.7109 9.71289 31.7578 9.7832C31.8086 9.84961 31.8574 9.91797 31.9043 9.98828C31.9551 10.0586 32.0078 10.127 32.0625 10.1934C32.1172 10.2559 32.1797 10.3105 32.25 10.3574C32.2578 10.4082 32.2715 10.4551 32.291 10.498C32.3105 10.541 32.3242 10.5879 32.332 10.6387C32.3477 10.666 32.3828 10.7129 32.4375 10.7793C32.4961 10.8418 32.5547 10.9082 32.6133 10.9785C32.6758 11.0449 32.7305 11.1074 32.7773 11.166C32.8242 11.2207 32.8477 11.252 32.8477 11.2598C32.8477 11.2754 32.8555 11.2832 32.8711 11.2832C32.9258 11.3066 32.9727 11.3379 33.0117 11.377C33.0547 11.416 33.0996 11.4531 33.1465 11.4883C33.1973 11.6641 33.2812 11.8164 33.3984 11.9453C33.5156 12.0742 33.6484 12.1895 33.7969 12.291C33.8008 12.334 33.8125 12.373 33.832 12.4082C33.8516 12.4395 33.873 12.4707 33.8965 12.502C33.9238 12.5293 33.9492 12.5586 33.9727 12.5898C34 12.6211 34.0215 12.6543 34.0371 12.6895C34.0488 12.7129 34.0547 12.7363 34.0547 12.7598C34.0547 12.7832 34.0605 12.8066 34.0723 12.8301C34.084 12.8574 34.1016 12.8789 34.125 12.8945C34.1523 12.9102 34.1758 12.9297 34.1953 12.9531C34.2109 12.9805 34.2227 13.0137 34.2305 13.0527C34.2422 13.0879 34.2539 13.125 34.2656 13.1641C34.2812 13.1992 34.3008 13.2305 34.3242 13.2578C34.3477 13.2812 34.3809 13.2949 34.4238 13.2988C34.4473 13.2402 34.459 13.1719 34.459 13.0938C34.459 13.0117 34.4492 12.9316 34.4297 12.8535C34.4102 12.7754 34.3867 12.6973 34.3594 12.6191C34.3359 12.5371 34.3145 12.457 34.2949 12.3789C34.2754 12.3008 34.2656 12.2207 34.2656 12.1387C34.2656 12.084 34.2793 12.0332 34.3066 11.9863C34.334 11.9395 34.3477 11.8887 34.3477 11.834C34.3477 11.7793 34.3359 11.7266 34.3125 11.6758C34.2891 11.6211 34.2734 11.5703 34.2656 11.5234C34.25 11.4336 34.2422 11.334 34.2422 11.2246C34.2461 11.1113 34.2461 10.998 34.2422 10.8848C34.2383 10.7715 34.2266 10.6621 34.207 10.5566C34.1914 10.4512 34.1582 10.3613 34.1074 10.2871C34.1152 10.2637 34.1191 10.2402 34.1191 10.2168C34.1191 10.1934 34.1191 10.1699 34.1191 10.1465C34.1191 10.0449 34.1113 9.94141 34.0957 9.83594C34.0801 9.72656 34.0723 9.61719 34.0723 9.50781C34.0723 9.42969 34.0801 9.35156 34.0957 9.27344C34.1113 9.19141 34.1445 9.11328 34.1953 9.03906C34.1836 8.96094 34.1562 8.89453 34.1133 8.83984C34.0742 8.78516 34.0371 8.72461 34.002 8.6582C34.002 8.63867 34.0039 8.62109 34.0078 8.60547C34.0117 8.58594 34.0137 8.56641 34.0137 8.54688C34.0137 8.50781 34.0078 8.4668 33.9961 8.42383C33.9844 8.38086 33.9707 8.33984 33.9551 8.30078C33.9434 8.25781 33.9316 8.21484 33.9199 8.17188C33.9121 8.12891 33.9102 8.08594 33.9141 8.04297V7.96094L33.9551 7.92578C33.9551 7.88672 33.9531 7.85156 33.9492 7.82031C33.9453 7.78906 33.9434 7.75586 33.9434 7.7207C33.9434 7.6543 33.9707 7.58984 34.0254 7.52734C34.084 7.46094 34.1523 7.40234 34.2305 7.35156C34.3086 7.29688 34.3887 7.25391 34.4707 7.22266C34.5566 7.1875 34.6289 7.16992 34.6875 7.16992C34.7266 7.16992 34.7656 7.17969 34.8047 7.19922C34.8438 7.21875 34.8809 7.24023 34.916 7.26367C34.9551 7.28711 34.9922 7.31055 35.0273 7.33398C35.0664 7.35742 35.1074 7.375 35.1504 7.38672C35.1895 7.47656 35.2422 7.55469 35.3086 7.62109C35.375 7.68359 35.4277 7.75586 35.4668 7.83789C35.4824 7.87695 35.4902 7.92188 35.4902 7.97266C35.4941 8.01953 35.4961 8.07031 35.4961 8.125C35.4961 8.17578 35.498 8.22852 35.502 8.2832C35.5098 8.33398 35.5254 8.38281 35.5488 8.42969C35.5254 8.46094 35.5098 8.5 35.502 8.54688C35.4941 8.58984 35.4902 8.63672 35.4902 8.6875C35.4902 8.73828 35.4922 8.78906 35.4961 8.83984C35.5 8.88672 35.502 8.92969 35.502 8.96875C35.502 9 35.4961 9.02539 35.4844 9.04492C35.4727 9.06445 35.4668 9.08984 35.4668 9.12109C35.4668 9.14844 35.4727 9.16992 35.4844 9.18555C35.4961 9.19727 35.502 9.21289 35.502 9.23242C35.502 9.26758 35.4922 9.30859 35.4727 9.35547C35.4531 9.39844 35.4395 9.4375 35.4316 9.47266C35.416 9.53906 35.4062 9.60547 35.4023 9.67188C35.4023 9.73438 35.4023 9.79492 35.4023 9.85352C35.4023 10.041 35.4219 10.2188 35.4609 10.3867C35.5 10.5547 35.5293 10.7266 35.5488 10.9023C35.5566 11.0234 35.5605 11.1445 35.5605 11.2656C35.5605 11.3828 35.5586 11.502 35.5547 11.623C35.5547 11.7402 35.5547 11.8574 35.5547 11.9746C35.5586 12.0918 35.5684 12.209 35.584 12.3262C35.5996 12.4668 35.6172 12.5801 35.6367 12.666C35.6602 12.752 35.6816 12.8359 35.7012 12.918C35.7207 12.9961 35.7383 13.084 35.7539 13.1816C35.7695 13.2793 35.7773 13.4102 35.7773 13.5742C35.7773 13.6836 35.7891 13.791 35.8125 13.8965C35.8359 13.998 35.8477 14.1035 35.8477 14.2129C35.8477 14.2832 35.8613 14.3516 35.8887 14.418C35.9199 14.4805 35.9355 14.5469 35.9355 14.6172V14.6582L35.8945 14.7285C35.9219 14.7285 35.9355 14.7441 35.9355 14.7754Z" fill="#272844"/>
<path d="M61.332 14.7217C61.332 14.7803 61.3239 14.8324 61.3076 14.8779C61.2913 14.9202 61.2718 14.9593 61.249 14.9951C61.2262 15.0309 61.2002 15.0667 61.1709 15.1025C61.1449 15.1383 61.1204 15.1807 61.0977 15.2295L61.0293 15.2197C60.9642 15.2197 60.8991 15.2246 60.834 15.2344C60.7689 15.2441 60.7038 15.249 60.6387 15.249C60.5801 15.249 60.5247 15.2393 60.4727 15.2197C60.4238 15.2002 60.3864 15.1595 60.3604 15.0977C60.3148 15.0716 60.2692 15.0521 60.2236 15.0391C60.1781 15.0293 60.1374 15.0065 60.1016 14.9707V14.9219C60.1016 14.8763 60.0869 14.8356 60.0576 14.7998C60.0283 14.764 60.0088 14.7233 59.999 14.6777C59.9795 14.5898 59.9714 14.4987 59.9746 14.4043C59.9779 14.3066 59.9795 14.2122 59.9795 14.1211C59.9795 14.0397 59.9714 13.96 59.9551 13.8818C59.9388 13.8037 59.9209 13.7272 59.9014 13.6523C59.8818 13.5742 59.8639 13.4977 59.8477 13.4229C59.8346 13.3447 59.8314 13.2666 59.8379 13.1885C59.6979 13.1722 59.5596 13.1592 59.4229 13.1494C59.2894 13.1364 59.151 13.1299 59.0078 13.1299C58.8874 13.1299 58.7653 13.1364 58.6416 13.1494C58.5212 13.1592 58.404 13.1868 58.29 13.2324C58.2282 13.1966 58.1615 13.1706 58.0898 13.1543C58.0215 13.138 57.9515 13.1299 57.8799 13.1299C57.805 13.1299 57.7383 13.1396 57.6797 13.1592C57.6536 13.2243 57.6406 13.2894 57.6406 13.3545C57.6406 13.4196 57.6309 13.4847 57.6113 13.5498C57.6048 13.5791 57.5934 13.6003 57.5771 13.6133C57.5641 13.623 57.5544 13.6361 57.5479 13.6523C57.5413 13.6686 57.5397 13.6865 57.543 13.7061C57.5462 13.7223 57.5479 13.7402 57.5479 13.7598C57.5479 13.7793 57.5332 13.8102 57.5039 13.8525C57.4779 13.8949 57.46 13.9339 57.4502 13.9697C57.4339 14.0544 57.4242 14.1455 57.4209 14.2432C57.4209 14.3376 57.4209 14.4303 57.4209 14.5215C57.4209 14.541 57.4274 14.5589 57.4404 14.5752C57.4535 14.5882 57.46 14.6029 57.46 14.6191C57.46 14.6354 57.4355 14.6794 57.3867 14.751C57.3379 14.8193 57.2826 14.8942 57.2207 14.9756C57.1621 15.0537 57.1068 15.1237 57.0547 15.1855C57.0026 15.2507 56.9749 15.2848 56.9717 15.2881C56.9489 15.2946 56.9277 15.2979 56.9082 15.2979C56.8887 15.2979 56.8691 15.2979 56.8496 15.2979C56.7357 15.2979 56.625 15.2702 56.5176 15.2148C56.4102 15.1628 56.3141 15.1009 56.2295 15.0293V14.9609C56.2295 14.8763 56.223 14.7917 56.21 14.707C56.1969 14.6191 56.1807 14.5329 56.1611 14.4482C56.2067 14.3896 56.236 14.3294 56.249 14.2676C56.262 14.2057 56.2653 14.1406 56.2588 14.0723C56.2881 14.0397 56.3125 14.0137 56.332 13.9941C56.3548 13.9746 56.3727 13.9551 56.3857 13.9355C56.3988 13.916 56.4069 13.8932 56.4102 13.8672C56.4167 13.8411 56.4199 13.8053 56.4199 13.7598V13.7402L56.4883 13.6816C56.4948 13.6458 56.4948 13.6133 56.4883 13.584C56.4818 13.5514 56.4785 13.5173 56.4785 13.4814C56.4785 13.4554 56.4818 13.4342 56.4883 13.418L56.5518 13.3594C56.5583 13.3398 56.5599 13.3219 56.5566 13.3057C56.5534 13.2861 56.5518 13.2682 56.5518 13.252C56.5518 13.2357 56.5566 13.2227 56.5664 13.2129C56.5762 13.1999 56.5876 13.1868 56.6006 13.1738C56.6136 13.1608 56.625 13.1478 56.6348 13.1348C56.6445 13.1217 56.6494 13.1071 56.6494 13.0908V13.0713C56.516 13.0518 56.3857 13.0518 56.2588 13.0713C56.2165 13.042 56.1725 13.0111 56.127 12.9785C56.0846 12.946 56.0456 12.9118 56.0098 12.876C55.974 12.8402 55.9447 12.7995 55.9219 12.7539C55.8991 12.7083 55.8877 12.6562 55.8877 12.5977C55.8877 12.4902 55.9089 12.4089 55.9512 12.3535C55.9935 12.2982 56.0439 12.2526 56.1025 12.2168C56.1644 12.1777 56.2295 12.1419 56.2979 12.1094C56.3695 12.0768 56.4329 12.0296 56.4883 11.9678H56.7422C56.8008 11.9092 56.8512 11.8457 56.8936 11.7773C56.9391 11.7057 56.9749 11.6292 57.001 11.5479C57.0107 11.5186 57.0156 11.4876 57.0156 11.4551C57.0156 11.4225 57.0205 11.3916 57.0303 11.3623C57.0596 11.2972 57.0986 11.2386 57.1475 11.1865C57.1963 11.1312 57.2337 11.0693 57.2598 11.001C57.276 10.9489 57.2809 10.8952 57.2744 10.8398C57.2679 10.7845 57.2728 10.7308 57.2891 10.6787C57.3184 10.5908 57.3509 10.5127 57.3867 10.4443C57.4225 10.376 57.4567 10.3076 57.4893 10.2393C57.5251 10.1676 57.5544 10.0879 57.5771 10C57.5999 9.91211 57.6113 9.80469 57.6113 9.67773C57.6113 9.6582 57.6064 9.64193 57.5967 9.62891C57.5869 9.61589 57.582 9.59961 57.582 9.58008C57.582 9.56055 57.5951 9.53125 57.6211 9.49219C57.6504 9.45312 57.6699 9.41895 57.6797 9.38965C57.6895 9.35384 57.6895 9.31966 57.6797 9.28711C57.6732 9.2513 57.6699 9.21549 57.6699 9.17969C57.6699 9.1569 57.6878 9.10645 57.7236 9.02832C57.7594 8.94694 57.8018 8.8623 57.8506 8.77441C57.8994 8.68327 57.9499 8.59863 58.002 8.52051C58.054 8.43913 58.0964 8.38542 58.1289 8.35938C58.1322 8.28776 58.1452 8.22591 58.168 8.17383C58.1908 8.11849 58.2168 8.06641 58.2461 8.01758C58.2754 7.96875 58.3063 7.91992 58.3389 7.87109C58.3714 7.82227 58.3991 7.76855 58.4219 7.70996C58.4674 7.70996 58.5 7.69043 58.5195 7.65137C58.526 7.64486 58.5358 7.6416 58.5488 7.6416C58.6009 7.6416 58.6595 7.64648 58.7246 7.65625C58.7897 7.66602 58.8646 7.6709 58.9492 7.6709C59.0241 7.6709 59.0957 7.6888 59.1641 7.72461C59.2357 7.75716 59.3008 7.79622 59.3594 7.8418C59.4147 7.88411 59.4668 7.95573 59.5156 8.05664C59.5677 8.15755 59.6165 8.27474 59.6621 8.4082C59.7077 8.53841 59.75 8.67839 59.7891 8.82812C59.8314 8.97786 59.8704 9.12435 59.9062 9.26758C59.9421 9.40755 59.9762 9.53776 60.0088 9.6582C60.0413 9.77539 60.0723 9.86979 60.1016 9.94141C60.1178 9.98698 60.139 10.0293 60.165 10.0684C60.1911 10.1042 60.2122 10.1481 60.2285 10.2002C60.2383 10.2458 60.2415 10.293 60.2383 10.3418C60.235 10.3906 60.2415 10.4395 60.2578 10.4883C60.2708 10.5306 60.2871 10.568 60.3066 10.6006C60.3262 10.6331 60.3441 10.6689 60.3604 10.708C60.3864 10.8089 60.4027 10.9131 60.4092 11.0205C60.4157 11.1247 60.4401 11.224 60.4824 11.3184C60.5671 11.5104 60.6354 11.7057 60.6875 11.9043C60.7428 12.1029 60.7705 12.3047 60.7705 12.5098C60.7705 12.5553 60.7835 12.6025 60.8096 12.6514C60.8096 12.6774 60.8177 12.7051 60.834 12.7344C60.8503 12.7637 60.8682 12.7946 60.8877 12.8271C60.9105 12.8564 60.9316 12.8857 60.9512 12.915C60.974 12.9443 60.9902 12.972 61 12.998C61.0065 13.0176 61.0195 13.0713 61.0391 13.1592C61.0586 13.2438 61.0798 13.3464 61.1025 13.4668C61.1286 13.5872 61.1546 13.7174 61.1807 13.8574C61.2067 13.9941 61.2311 14.1243 61.2539 14.248C61.2767 14.3685 61.2946 14.4727 61.3076 14.5605C61.3239 14.6484 61.332 14.7021 61.332 14.7217ZM59.5498 12.0703C59.5465 12.0052 59.5352 11.9417 59.5156 11.8799C59.4961 11.818 59.4733 11.7578 59.4473 11.6992C59.4245 11.6374 59.4001 11.5755 59.374 11.5137C59.3512 11.4486 59.3333 11.3835 59.3203 11.3184C59.3105 11.25 59.3073 11.1768 59.3105 11.0986C59.3171 11.0205 59.3105 10.944 59.291 10.8691C59.2812 10.8301 59.2699 10.8024 59.2568 10.7861C59.2471 10.7699 59.2373 10.7552 59.2275 10.7422C59.221 10.7259 59.2145 10.7064 59.208 10.6836C59.2015 10.6576 59.1982 10.6169 59.1982 10.5615C59.1982 10.5322 59.1901 10.5046 59.1738 10.4785C59.1608 10.4525 59.1462 10.4264 59.1299 10.4004C59.1136 10.3743 59.0973 10.3434 59.0811 10.3076C59.068 10.2718 59.0615 10.2295 59.0615 10.1807C59.0615 10.1514 59.0664 10.1221 59.0762 10.0928C59.0859 10.0602 59.0941 10.0293 59.1006 10C59.0387 9.94466 58.9867 9.88281 58.9443 9.81445C58.9053 9.74609 58.8597 9.68099 58.8076 9.61914C58.7848 9.63216 58.7702 9.65332 58.7637 9.68262C58.7572 9.71191 58.7539 9.74447 58.7539 9.78027C58.7539 9.81283 58.7539 9.84701 58.7539 9.88281C58.7539 9.91862 58.749 9.94792 58.7393 9.9707C58.7295 10 58.71 10.0228 58.6807 10.0391C58.6546 10.0521 58.6318 10.0716 58.6123 10.0977C58.596 10.1237 58.583 10.153 58.5732 10.1855C58.5667 10.2181 58.5488 10.2425 58.5195 10.2588V10.5518C58.4447 10.6396 58.3828 10.7422 58.334 10.8594C58.2884 10.9766 58.2493 11.0986 58.2168 11.2256C58.1875 11.3525 58.1631 11.4811 58.1436 11.6113C58.1273 11.7383 58.1126 11.8571 58.0996 11.9678C58.1094 11.9743 58.1208 11.9792 58.1338 11.9824C58.1468 11.9824 58.1582 11.9824 58.168 11.9824C58.2233 11.9824 58.277 11.9759 58.3291 11.9629C58.3812 11.9466 58.4349 11.9385 58.4902 11.9385C58.6302 11.9385 58.7669 11.9482 58.9004 11.9678C58.9362 11.9743 58.9671 11.9873 58.9932 12.0068C59.0225 12.0231 59.055 12.0312 59.0908 12.0312C59.1071 12.0312 59.1201 12.0264 59.1299 12.0166C59.1429 12.0068 59.1624 12.002 59.1885 12.002C59.2406 12.002 59.2894 12.0166 59.335 12.0459C59.3805 12.0752 59.4294 12.0898 59.4814 12.0898C59.501 12.0898 59.5238 12.0833 59.5498 12.0703ZM65.7705 9.35059C65.7445 9.34082 65.7201 9.33594 65.6973 9.33594C65.6745 9.33268 65.6501 9.33105 65.624 9.33105C65.5394 9.33105 65.4548 9.34408 65.3701 9.37012C65.2887 9.39616 65.2057 9.40918 65.1211 9.40918C65.082 9.40918 65.0413 9.40592 64.999 9.39941C64.9567 9.3929 64.9144 9.38639 64.8721 9.37988C64.8428 9.39941 64.8102 9.40918 64.7744 9.40918C64.7386 9.40918 64.7142 9.39941 64.7012 9.37988C64.6914 9.36035 64.6719 9.35059 64.6426 9.35059C64.6133 9.35059 64.5856 9.3571 64.5596 9.37012C64.5368 9.37988 64.5124 9.38965 64.4863 9.39941C64.4635 9.40918 64.4391 9.41732 64.4131 9.42383C64.387 9.42708 64.3561 9.4222 64.3203 9.40918C64.3138 9.42871 64.3105 9.4515 64.3105 9.47754C64.3105 9.50033 64.3105 9.52148 64.3105 9.54102C64.3105 9.63216 64.3171 9.72493 64.3301 9.81934C64.3464 9.91048 64.3545 10.0033 64.3545 10.0977C64.3545 10.1628 64.3431 10.2295 64.3203 10.2979C64.3008 10.363 64.291 10.4297 64.291 10.498C64.291 10.5794 64.3008 10.6608 64.3203 10.7422C64.3431 10.8236 64.3545 10.9066 64.3545 10.9912C64.3545 11.0563 64.3431 11.1214 64.3203 11.1865C64.3008 11.2516 64.291 11.3167 64.291 11.3818C64.291 11.4372 64.2992 11.4909 64.3154 11.543C64.335 11.5918 64.348 11.6439 64.3545 11.6992C64.3708 11.8294 64.3805 11.958 64.3838 12.085C64.3903 12.2119 64.3936 12.3405 64.3936 12.4707C64.3936 12.5944 64.387 12.7214 64.374 12.8516C64.361 12.9785 64.3545 13.1055 64.3545 13.2324C64.3545 13.3171 64.3659 13.3984 64.3887 13.4766C64.4115 13.5514 64.4229 13.6263 64.4229 13.7012C64.4229 13.7402 64.418 13.7777 64.4082 13.8135C64.3984 13.8493 64.3936 13.8883 64.3936 13.9307C64.387 14.012 64.3854 14.0934 64.3887 14.1748C64.3919 14.2529 64.3936 14.3343 64.3936 14.4189C64.3936 14.5133 64.3838 14.6045 64.3643 14.6924C64.3447 14.7803 64.335 14.8698 64.335 14.9609C64.335 14.9935 64.3236 15.0244 64.3008 15.0537C64.2812 15.083 64.2552 15.109 64.2227 15.1318C64.1934 15.1546 64.1608 15.1725 64.125 15.1855C64.0924 15.2018 64.0615 15.21 64.0322 15.21C63.9769 15.21 63.9232 15.2067 63.8711 15.2002C63.8223 15.1937 63.7734 15.1904 63.7246 15.1904C63.6986 15.1904 63.6725 15.1904 63.6465 15.1904C63.6237 15.1937 63.6025 15.2035 63.583 15.2197C63.4626 15.1383 63.3779 15.0358 63.3291 14.9121C63.2835 14.7852 63.2607 14.6517 63.2607 14.5117C63.2607 14.4108 63.2689 14.3115 63.2852 14.2139C63.3047 14.1162 63.3242 14.0186 63.3438 13.9209C63.3665 13.8232 63.3861 13.7272 63.4023 13.6328C63.4219 13.5352 63.4316 13.4342 63.4316 13.3301C63.4316 13.2812 63.4316 13.2308 63.4316 13.1787C63.4316 13.1234 63.4284 13.0697 63.4219 13.0176C63.4121 12.9688 63.3926 12.9183 63.3633 12.8662C63.3372 12.8109 63.3242 12.7588 63.3242 12.71C63.3242 12.6904 63.3291 12.6693 63.3389 12.6465C63.3486 12.6204 63.3535 12.5944 63.3535 12.5684C63.3535 12.5423 63.3486 12.5179 63.3389 12.4951C63.3291 12.4691 63.3242 12.4414 63.3242 12.4121C63.3242 12.3405 63.3405 12.2705 63.373 12.2021C63.4056 12.1305 63.4219 12.0573 63.4219 11.9824C63.4219 11.9238 63.4154 11.8669 63.4023 11.8115C63.3893 11.7529 63.3747 11.696 63.3584 11.6406C63.3421 11.582 63.3275 11.5234 63.3145 11.4648C63.3014 11.4062 63.2949 11.3477 63.2949 11.2891C63.2949 11.2402 63.2998 11.1914 63.3096 11.1426C63.3193 11.0905 63.3242 11.04 63.3242 10.9912C63.3242 10.9391 63.3193 10.8903 63.3096 10.8447C63.2998 10.7992 63.2949 10.7503 63.2949 10.6982C63.2949 10.6689 63.2998 10.6396 63.3096 10.6104C63.3193 10.5778 63.3242 10.5436 63.3242 10.5078C63.3242 10.4427 63.3128 10.3792 63.29 10.3174C63.2705 10.2523 63.2607 10.1872 63.2607 10.1221C63.2607 10.057 63.2721 9.99186 63.2949 9.92676C63.321 9.86165 63.334 9.79655 63.334 9.73145C63.334 9.65658 63.321 9.5931 63.2949 9.54102C63.2233 9.51497 63.1484 9.4987 63.0703 9.49219C62.9922 9.48568 62.9157 9.48242 62.8408 9.48242C62.7106 9.48242 62.582 9.4873 62.4551 9.49707C62.3314 9.50684 62.2044 9.51172 62.0742 9.51172C61.9993 9.51172 61.918 9.50358 61.8301 9.4873C61.7454 9.47103 61.6657 9.44499 61.5908 9.40918C61.5192 9.37012 61.459 9.31966 61.4102 9.25781C61.3646 9.19271 61.3418 9.11296 61.3418 9.01855C61.3418 8.93392 61.3597 8.84928 61.3955 8.76465C61.4346 8.67676 61.4639 8.59212 61.4834 8.51074C61.6136 8.44564 61.752 8.40169 61.8984 8.37891C62.0449 8.35286 62.193 8.33659 62.3428 8.33008C62.4925 8.32357 62.6406 8.32194 62.7871 8.3252C62.9368 8.32845 63.0817 8.32682 63.2217 8.32031C63.251 8.29427 63.2689 8.26172 63.2754 8.22266C63.2852 8.18034 63.2917 8.13802 63.2949 8.0957C63.2982 8.05013 63.3014 8.00618 63.3047 7.96387C63.3112 7.92155 63.3275 7.88737 63.3535 7.86133V7.8418C63.3535 7.82878 63.3698 7.8125 63.4023 7.79297C63.4382 7.77018 63.4788 7.74902 63.5244 7.72949C63.57 7.70996 63.6139 7.69368 63.6562 7.68066C63.6986 7.66764 63.7279 7.66113 63.7441 7.66113C63.8451 7.66113 63.9199 7.67253 63.9688 7.69531C64.0176 7.7181 64.0534 7.74414 64.0762 7.77344C64.1022 7.80273 64.1234 7.8304 64.1396 7.85645C64.1559 7.88249 64.1836 7.89714 64.2227 7.90039C64.2487 7.95898 64.2699 8.02246 64.2861 8.09082C64.3057 8.15592 64.3285 8.2194 64.3545 8.28125C64.4131 8.27474 64.4701 8.26335 64.5254 8.24707C64.584 8.22754 64.6458 8.21777 64.7109 8.21777C64.7467 8.21777 64.7826 8.22754 64.8184 8.24707C64.8574 8.26335 64.8949 8.27474 64.9307 8.28125L65.0039 8.25195L65.0332 8.28125C65.0983 8.29753 65.1667 8.30241 65.2383 8.2959C65.3099 8.28613 65.3783 8.28125 65.4434 8.28125C65.5475 8.28125 65.6484 8.29264 65.7461 8.31543C65.847 8.33822 65.9349 8.37565 66.0098 8.42773C66.0879 8.47656 66.1497 8.54167 66.1953 8.62305C66.2409 8.70443 66.2637 8.80371 66.2637 8.9209C66.2637 8.97624 66.2441 9.02507 66.2051 9.06738C66.1693 9.10645 66.1253 9.14225 66.0732 9.1748C66.0212 9.2041 65.9674 9.2334 65.9121 9.2627C65.8568 9.29199 65.8096 9.32129 65.7705 9.35059ZM71.5518 9.93164C71.5518 10.0326 71.5469 10.1302 71.5371 10.2246C71.5273 10.319 71.5094 10.4134 71.4834 10.5078C71.3923 10.5697 71.293 10.6136 71.1855 10.6396C71.0814 10.6657 70.974 10.6787 70.8633 10.6787C70.8372 10.6787 70.8112 10.6771 70.7852 10.6738C70.7624 10.6706 70.738 10.6689 70.7119 10.6689C70.6891 10.6169 70.6663 10.5843 70.6436 10.5713C70.6208 10.555 70.5996 10.5404 70.5801 10.5273C70.5638 10.5143 70.5492 10.4932 70.5361 10.4639C70.5264 10.4346 70.5215 10.3792 70.5215 10.2979C70.5215 10.249 70.5117 10.2165 70.4922 10.2002C70.4727 10.1839 70.4596 10.1579 70.4531 10.1221C70.4336 10.0049 70.4255 9.91699 70.4287 9.8584C70.4352 9.79655 70.4385 9.73958 70.4385 9.6875C70.4417 9.63542 70.4336 9.57682 70.4141 9.51172C70.3978 9.44336 70.3571 9.3457 70.292 9.21875C70.2822 9.19922 70.2725 9.17155 70.2627 9.13574C70.2529 9.09668 70.2399 9.07064 70.2236 9.05762C70.2074 9.04134 70.1829 9.02507 70.1504 9.00879C70.1178 8.98926 70.082 8.97135 70.043 8.95508C70.0039 8.93555 69.9665 8.91927 69.9307 8.90625C69.8949 8.88997 69.8656 8.87533 69.8428 8.8623C69.8167 8.84928 69.7858 8.83301 69.75 8.81348C69.7174 8.79069 69.6816 8.76953 69.6426 8.75C69.6035 8.72721 69.5661 8.70931 69.5303 8.69629C69.4945 8.68001 69.4619 8.67188 69.4326 8.67188C69.3968 8.67188 69.3626 8.67676 69.3301 8.68652C69.2975 8.69629 69.2617 8.70117 69.2227 8.70117C69.1868 8.70117 69.151 8.69629 69.1152 8.68652C69.0827 8.67676 69.0485 8.67188 69.0127 8.67188C68.9704 8.67188 68.9134 8.68327 68.8418 8.70605C68.7734 8.72884 68.6986 8.75977 68.6172 8.79883C68.5391 8.83464 68.4577 8.87695 68.373 8.92578C68.2917 8.97135 68.2135 9.02018 68.1387 9.07227C68.0671 9.12109 68.0036 9.16992 67.9482 9.21875C67.8962 9.26758 67.8604 9.31152 67.8408 9.35059C67.8083 9.41243 67.7855 9.47754 67.7725 9.5459C67.7627 9.61426 67.7529 9.68262 67.7432 9.75098C67.7367 9.81934 67.7269 9.8877 67.7139 9.95605C67.7008 10.0244 67.6764 10.0895 67.6406 10.1514C67.6732 10.1937 67.696 10.2409 67.709 10.293C67.722 10.3418 67.7334 10.3906 67.7432 10.4395C67.7529 10.4883 67.7627 10.5355 67.7725 10.5811C67.7855 10.6266 67.8083 10.6657 67.8408 10.6982C67.8669 10.7275 67.8962 10.7536 67.9287 10.7764C67.9645 10.7992 67.9971 10.8236 68.0264 10.8496C68.0557 10.8724 68.0801 10.9001 68.0996 10.9326C68.1224 10.9652 68.1338 11.0075 68.1338 11.0596C68.1696 11.0563 68.2135 11.0628 68.2656 11.0791C68.3177 11.0921 68.3698 11.11 68.4219 11.1328C68.4772 11.1523 68.5309 11.1735 68.583 11.1963C68.6351 11.2191 68.679 11.237 68.7148 11.25C68.7441 11.2598 68.7702 11.276 68.793 11.2988C68.8158 11.3216 68.8418 11.3379 68.8711 11.3477C68.946 11.3704 69.0208 11.3786 69.0957 11.3721C69.1738 11.3623 69.2503 11.3656 69.3252 11.3818C69.3838 11.3949 69.431 11.4111 69.4668 11.4307C69.5059 11.4469 69.5417 11.4632 69.5742 11.4795C69.61 11.4958 69.6491 11.5104 69.6914 11.5234C69.7337 11.5332 69.7907 11.5381 69.8623 11.5381C69.8883 11.5381 69.916 11.5462 69.9453 11.5625C69.9746 11.5788 70.0055 11.5951 70.0381 11.6113C70.0706 11.6276 70.1048 11.6439 70.1406 11.6602C70.1797 11.6732 70.2204 11.6764 70.2627 11.6699C70.3115 11.7188 70.3555 11.7741 70.3945 11.8359C70.4336 11.8945 70.471 11.9548 70.5068 12.0166C70.5459 12.0752 70.5866 12.1338 70.6289 12.1924C70.6712 12.2477 70.7201 12.2998 70.7754 12.3486C70.7754 12.3649 70.7721 12.3796 70.7656 12.3926C70.7624 12.4023 70.7607 12.4154 70.7607 12.4316C70.7607 12.5 70.777 12.5537 70.8096 12.5928C70.8454 12.6286 70.8763 12.6742 70.9023 12.7295C70.8958 12.7588 70.8926 12.7865 70.8926 12.8125C70.8926 12.8385 70.8926 12.8646 70.8926 12.8906C70.8926 13.0046 70.9056 13.1201 70.9316 13.2373C70.9577 13.3512 70.9707 13.4652 70.9707 13.5791C70.9707 13.693 70.9642 13.7891 70.9512 13.8672C70.9382 13.9421 70.9186 14.0137 70.8926 14.082C70.8665 14.1471 70.8324 14.2122 70.79 14.2773C70.751 14.3424 70.7021 14.4206 70.6436 14.5117C70.6012 14.5703 70.5654 14.6354 70.5361 14.707C70.5101 14.7786 70.4727 14.8389 70.4238 14.8877H70.3506V14.9609C70.3245 14.9805 70.2936 14.9967 70.2578 15.0098C70.2253 15.0228 70.1943 15.0391 70.165 15.0586C70.0576 15.1302 69.9762 15.1839 69.9209 15.2197C69.8656 15.2588 69.8118 15.2881 69.7598 15.3076C69.7109 15.3271 69.6523 15.3402 69.584 15.3467C69.5189 15.3564 69.4212 15.3678 69.291 15.3809C69.2161 15.3874 69.1429 15.3988 69.0713 15.415C69.0029 15.4313 68.9329 15.4395 68.8613 15.4395C68.793 15.4395 68.7376 15.4281 68.6953 15.4053C68.6562 15.3857 68.609 15.3678 68.5537 15.3516C68.5146 15.3418 68.4756 15.3353 68.4365 15.332C68.3975 15.3288 68.3584 15.3255 68.3193 15.3223C68.2803 15.319 68.2428 15.3141 68.207 15.3076C68.1712 15.3044 68.137 15.2946 68.1045 15.2783C68.0687 15.262 68.0378 15.2409 68.0117 15.2148C67.9889 15.1921 67.9629 15.1709 67.9336 15.1514C67.9238 15.1449 67.9092 15.1367 67.8896 15.127C67.8734 15.1204 67.8571 15.1123 67.8408 15.1025C67.8278 15.0928 67.8164 15.0814 67.8066 15.0684C67.8001 15.0553 67.8018 15.0391 67.8115 15.0195C67.6976 15 67.6048 14.9609 67.5332 14.9023C67.4616 14.8405 67.3965 14.7721 67.3379 14.6973C67.2826 14.6191 67.2272 14.541 67.1719 14.4629C67.1198 14.3815 67.0531 14.3099 66.9717 14.248C66.9717 14.2318 66.9733 14.2188 66.9766 14.209C66.9798 14.1992 66.9814 14.1862 66.9814 14.1699C66.9814 14.1276 66.9733 14.0853 66.957 14.043C66.944 14.0007 66.9294 13.96 66.9131 13.9209C66.8968 13.8818 66.8805 13.8428 66.8643 13.8037C66.8512 13.7646 66.8447 13.7272 66.8447 13.6914C66.8447 13.6393 66.8594 13.5856 66.8887 13.5303C66.9212 13.4717 66.9603 13.4196 67.0059 13.374C67.0547 13.3252 67.1068 13.2861 67.1621 13.2568C67.2207 13.2243 67.2744 13.208 67.3232 13.208C67.3786 13.208 67.4307 13.2178 67.4795 13.2373C67.5283 13.2568 67.5755 13.2812 67.6211 13.3105C67.6667 13.3398 67.7106 13.3724 67.7529 13.4082C67.7952 13.444 67.8359 13.4782 67.875 13.5107C67.888 13.5628 67.9092 13.6117 67.9385 13.6572C67.9678 13.7028 67.9971 13.7484 68.0264 13.7939C68.0557 13.8395 68.0833 13.8867 68.1094 13.9355C68.1354 13.9811 68.1533 14.0332 68.1631 14.0918C68.2119 14.1081 68.2575 14.1325 68.2998 14.165C68.3454 14.1976 68.3893 14.2301 68.4316 14.2627C68.4772 14.2952 68.5228 14.3229 68.5684 14.3457C68.6139 14.3685 68.666 14.3799 68.7246 14.3799C68.7279 14.3799 68.7604 14.3734 68.8223 14.3604C68.8841 14.3473 68.9508 14.3327 69.0225 14.3164C69.0973 14.3001 69.1657 14.2855 69.2275 14.2725C69.2894 14.2594 69.3219 14.2513 69.3252 14.248C69.3447 14.2383 69.361 14.2236 69.374 14.2041C69.387 14.1846 69.4033 14.1667 69.4229 14.1504C69.4489 14.1341 69.4749 14.1292 69.501 14.1357C69.5303 14.1423 69.5579 14.1374 69.584 14.1211C69.623 14.1016 69.6572 14.0723 69.6865 14.0332C69.7191 13.9909 69.7614 13.9665 69.8135 13.96C69.8135 13.9242 69.8118 13.8883 69.8086 13.8525C69.8053 13.8135 69.8037 13.776 69.8037 13.7402C69.8037 13.7305 69.8037 13.7191 69.8037 13.7061C69.8037 13.693 69.807 13.6816 69.8135 13.6719L69.8721 13.5986V13.5303C69.8721 13.501 69.8818 13.4782 69.9014 13.4619C69.9209 13.4424 69.9307 13.4147 69.9307 13.3789C69.9307 13.3659 69.9274 13.3431 69.9209 13.3105C69.9144 13.278 69.9062 13.2454 69.8965 13.2129C69.8867 13.1803 69.877 13.1494 69.8672 13.1201C69.8574 13.0908 69.8493 13.0713 69.8428 13.0615L69.7744 13.0176C69.7646 12.998 69.7614 12.9785 69.7646 12.959C69.7679 12.9362 69.7614 12.9167 69.7451 12.9004L69.6816 12.8613C69.6621 12.8353 69.6475 12.8092 69.6377 12.7832C69.6279 12.7539 69.61 12.7262 69.584 12.7002C69.5482 12.6676 69.4945 12.6367 69.4229 12.6074C69.3545 12.5749 69.2796 12.5472 69.1982 12.5244C69.1201 12.4984 69.0436 12.4788 68.9688 12.4658C68.8939 12.4495 68.832 12.4414 68.7832 12.4414C68.7474 12.4414 68.7116 12.4447 68.6758 12.4512C68.6432 12.4544 68.6123 12.4642 68.583 12.4805C68.5439 12.4707 68.5146 12.4593 68.4951 12.4463C68.4788 12.4333 68.4642 12.4202 68.4512 12.4072C68.4382 12.3942 68.4251 12.3812 68.4121 12.3682C68.3991 12.3551 68.3763 12.3438 68.3438 12.334C68.3145 12.3242 68.2721 12.3161 68.2168 12.3096C68.1615 12.3031 68.0866 12.2998 67.9922 12.2998C67.8978 12.2998 67.8018 12.2689 67.7041 12.207C67.6064 12.1452 67.5104 12.0719 67.416 11.9873C67.3249 11.8994 67.2402 11.8099 67.1621 11.7188C67.084 11.6243 67.0205 11.5446 66.9717 11.4795C66.9619 11.4632 66.957 11.4421 66.957 11.416C66.957 11.3867 66.9489 11.3639 66.9326 11.3477L66.874 11.3184C66.8643 11.2891 66.8545 11.263 66.8447 11.2402C66.8382 11.2174 66.8138 11.2012 66.7715 11.1914V11.1621C66.7715 11.0905 66.7601 11.0221 66.7373 10.957C66.7145 10.8919 66.6836 10.8301 66.6445 10.7715C66.651 10.7454 66.6543 10.7227 66.6543 10.7031C66.6543 10.6803 66.6543 10.6559 66.6543 10.6299C66.6543 10.5094 66.6413 10.3906 66.6152 10.2734C66.5924 10.153 66.5811 10.0326 66.5811 9.91211C66.5811 9.87956 66.5892 9.85026 66.6055 9.82422C66.625 9.79818 66.638 9.76725 66.6445 9.73145C66.6706 9.64681 66.6901 9.55892 66.7031 9.46777C66.7194 9.37337 66.7324 9.2806 66.7422 9.18945C66.804 9.14062 66.8529 9.09505 66.8887 9.05273C66.9277 9.01042 66.9424 8.94694 66.9326 8.8623C66.9717 8.83952 67.0075 8.8151 67.04 8.78906C67.0726 8.75977 67.1035 8.73047 67.1328 8.70117C67.1361 8.66536 67.1458 8.63281 67.1621 8.60352C67.1816 8.57422 67.1995 8.54492 67.2158 8.51562C67.2354 8.48633 67.2516 8.45703 67.2646 8.42773C67.2809 8.39518 67.2907 8.35938 67.2939 8.32031C67.3395 8.28451 67.3867 8.25033 67.4355 8.21777C67.4844 8.18197 67.5234 8.13965 67.5527 8.09082C67.5658 8.09082 67.6016 8.07454 67.6602 8.04199C67.722 8.00944 67.7904 7.97363 67.8652 7.93457C67.9401 7.89225 68.0117 7.85319 68.0801 7.81738C68.1484 7.77832 68.1956 7.75228 68.2217 7.73926C68.2705 7.71647 68.3307 7.7002 68.4023 7.69043C68.474 7.67741 68.5456 7.66439 68.6172 7.65137C68.6888 7.63835 68.7555 7.6237 68.8174 7.60742C68.8825 7.59115 68.9346 7.56836 68.9736 7.53906C69.0745 7.56185 69.1917 7.57812 69.3252 7.58789C69.4619 7.59766 69.597 7.6123 69.7305 7.63184C69.8639 7.65137 69.9893 7.68392 70.1064 7.72949C70.2269 7.77181 70.3229 7.83854 70.3945 7.92969C70.4661 7.93294 70.528 7.94759 70.5801 7.97363C70.6322 7.99642 70.681 8.02409 70.7266 8.05664C70.7754 8.08919 70.8226 8.12174 70.8682 8.1543C70.917 8.18359 70.9723 8.20475 71.0342 8.21777C71.0342 8.25684 71.0439 8.29102 71.0635 8.32031L71.1318 8.34961C71.1514 8.38216 71.1676 8.41797 71.1807 8.45703C71.1969 8.49284 71.21 8.52865 71.2197 8.56445C71.2327 8.60026 71.2458 8.63607 71.2588 8.67188C71.2751 8.70768 71.2962 8.74023 71.3223 8.76953C71.3385 8.78581 71.3564 8.80046 71.376 8.81348C71.3988 8.82324 71.415 8.83952 71.4248 8.8623C71.4313 8.88184 71.4313 8.90137 71.4248 8.9209C71.4183 8.93717 71.415 8.95345 71.415 8.96973L71.4248 8.98926L71.4834 9.05762C71.4964 9.10645 71.5062 9.16992 71.5127 9.24805C71.5225 9.32292 71.529 9.40267 71.5322 9.4873C71.5387 9.57194 71.5436 9.65495 71.5469 9.73633C71.5501 9.81445 71.5518 9.87956 71.5518 9.93164Z" fill="#272844"/>
</svg>
