<svg width="14" height="14" viewBox="0 0 14 14" fill="none" xmlns="http://www.w3.org/2000/svg">
<path d="M13.2222 6.52557C13.3667 6.41789 13.4739 6.26768 13.5288 6.096C13.5837 5.92432 13.5834 5.73978 13.5281 5.56824C13.4728 5.39671 13.3652 5.24679 13.2203 5.13951C13.0755 5.03222 12.9007 4.97295 12.7205 4.97001L9.22054 4.83779C9.20333 4.8366 9.18683 4.83046 9.17303 4.82011C9.15923 4.80976 9.14872 4.79564 9.14276 4.77945L7.93331 1.51279C7.87255 1.34659 7.76218 1.20308 7.61715 1.10169C7.47212 1.0003 7.29944 0.945923 7.12248 0.945923C6.94552 0.945923 6.77284 1.0003 6.62781 1.10169C6.48278 1.20308 6.37241 1.34659 6.31165 1.51279L5.10609 4.79112C5.10013 4.80731 5.08962 4.82143 5.07582 4.83178C5.06202 4.84213 5.04552 4.84827 5.02831 4.84945L1.52831 4.98168C1.3481 4.98462 1.17333 5.04389 1.02851 5.15117C0.883685 5.25846 0.776069 5.40838 0.720749 5.57991C0.66543 5.75144 0.665182 5.93599 0.72004 6.10767C0.774897 6.27935 0.88211 6.42956 1.02665 6.53723L3.7722 8.69557C3.78594 8.70638 3.79621 8.72098 3.80174 8.73757C3.80727 8.75416 3.80782 8.772 3.80331 8.7889L2.85831 12.1372C2.80934 12.3077 2.81409 12.4892 2.8719 12.6569C2.92971 12.8246 3.03779 12.9705 3.18142 13.0746C3.32505 13.1787 3.49727 13.236 3.67465 13.2388C3.85203 13.2415 4.02595 13.1896 4.17276 13.09L7.07387 11.1456C7.08816 11.1357 7.10511 11.1304 7.12248 11.1304C7.13985 11.1304 7.1568 11.1357 7.17109 11.1456L10.0722 13.09C10.217 13.193 10.3903 13.2483 10.568 13.2483C10.7457 13.2483 10.919 13.193 11.0639 13.09C11.2075 12.9869 11.3157 12.8418 11.3735 12.6746C11.4313 12.5075 11.4359 12.3265 11.3866 12.1567L10.4339 8.79668C10.4288 8.77981 10.4291 8.7618 10.4347 8.74509C10.4402 8.72839 10.4508 8.71381 10.465 8.70334L13.2222 6.52557Z" fill="#F15743"/>
</svg>
